<svg width="80" height="80" viewBox="0 0 80 80" fill="none" xmlns="http://www.w3.org/2000/svg">
<rect width="80" height="80" rx="15" fill="#284B78"/>
<g clip-path="url(#clip0_595_331)">
<path fill-rule="evenodd" clip-rule="evenodd" d="M34.0562 19.2857C33.5615 19.2857 30.3463 17.619 29.357 17.619C28.1204 17.619 27.1311 18.5714 26.8838 19.5238C26.8838 20 26.1418 22.8571 26.1418 23.3333C25.3998 23.3333 22.4319 23.0952 21.9373 23.0952C21.4426 23.0952 21.4426 23.3333 20.948 23.3333C20.206 23.8095 19.7113 24.7619 19.7113 25.7143C19.7113 26.4286 20.7006 29.0476 20.7006 29.7619C19.9587 30 18.2274 30.7143 17.4854 30.9524C16.9908 31.1905 16.4961 31.4286 16.0015 31.6667C15.2595 32.381 15.2595 34.0476 16.0015 35C16.2488 35.4762 17.7328 37.381 17.9801 37.8571C17.7328 38.3333 16.9908 38.8095 16.4961 39.2857C15.5068 40.2381 14.5175 40.7143 14.5175 42.1429C14.5175 44.0476 16.2488 44.7619 17.4854 45.4762C17.9801 45.7143 18.4747 45.9524 18.9694 46.1905C18.4747 47.1429 17.9801 48.5714 17.4854 49.2857C17.2381 49.7619 17.2381 50.2381 17.2381 50.7143C17.2381 51.9048 18.2274 52.8571 19.2167 53.0952C20.206 53.3333 21.6899 53.5714 22.6792 53.5714C22.9266 53.5714 22.9266 53.5714 23.1739 53.8095C23.1739 54.0476 22.9266 57.381 22.9266 57.8571C23.1739 58.3333 23.1739 58.5714 23.4212 58.8095V59.0476C24.6578 60.4762 26.1418 60 27.6257 59.5238C28.1204 59.5238 29.6043 59.0476 29.8517 59.0476C30.099 59.5238 30.841 61.4286 31.0883 62.1429C31.3356 62.381 31.3356 62.619 31.3356 62.8571C31.8303 64.2857 34.0562 64.5238 35.0455 63.8095L37.766 61.9048C38.0134 61.9048 38.0134 61.6667 38.2607 61.6667C38.508 61.6667 39.4973 62.8571 39.7446 63.0952C39.992 63.3333 39.992 63.3333 40.2393 63.5714C40.9813 64.5238 41.7232 65 42.9599 65C44.4438 65 44.6911 64.2857 45.4331 63.3333C45.6804 62.619 46.6697 61.4286 46.9171 60.7143C47.1644 60.7143 47.4117 60.9524 47.4117 60.9524L50.1323 62.1429C50.6269 62.381 51.1216 62.381 51.8635 62.381C52.3582 62.381 53.1002 62.1429 53.3475 61.9048C53.8421 61.4286 54.0895 60.9524 54.0895 60.4762L54.5841 57.619C54.5841 57.381 54.8314 56.9048 54.8314 56.6667L58.294 56.9048C60.0253 57.1429 61.0146 55.9524 61.2619 54.5238C61.2619 54.0476 60.5199 50.9524 60.2726 50.2381C60.5199 50.2381 60.7672 50 61.0146 50C61.7565 49.7619 64.2298 48.8095 64.7244 48.5714C65.7137 47.619 65.9611 46.1905 64.9718 45C64.4771 44.5238 63.2405 42.619 62.7458 42.1429C62.9932 42.1429 63.7351 41.4286 63.9825 41.1905L64.9718 40.2381C65.2191 40 65.7137 39.7619 65.9611 39.2857C66.703 38.3333 66.703 37.1429 65.9611 36.1905C65.4664 35.4762 64.2298 35 63.4878 34.5238C62.9932 34.2857 62.4985 34.0476 62.0039 33.8095C62.0039 33.5714 62.4985 32.619 62.7458 32.1429C63.2405 31.1905 63.7351 30.4762 63.7351 29.2857C63.7351 28.8095 63.4878 28.0952 63.2405 27.619C62.9932 27.1429 62.4985 27.1429 61.7565 26.9048C61.0146 26.6667 58.7886 26.4286 57.7993 26.1905C57.7993 25.4762 58.0467 24.7619 58.0467 24.0476C58.0467 23.8095 58.0467 22.381 58.0467 22.1429C57.7993 21.6667 57.7993 21.4286 57.552 21.1905C57.552 21.1905 57.3047 20.7143 57.0574 20.7143C55.5734 19.5238 55.0788 20 53.3475 20.4762C52.6055 20.7143 51.8635 20.7143 51.1216 20.9524C50.8743 20.4762 50.6269 20 50.6269 19.2857C50.3796 18.8095 50.1323 18.3333 49.885 17.8571C49.6376 17.1429 49.6376 16.9048 49.143 16.4286C48.401 15.9524 47.9064 15.9524 46.9171 15.9524C46.4224 15.9524 44.4438 17.381 43.7018 17.8571L42.7125 18.5714L41.7232 17.619C41.7232 17.381 41.7232 17.381 41.4759 17.381L40.4866 16.1905C39.4973 15.2381 39.4973 15 38.0134 15C37.5187 15 36.7767 15.2381 36.5294 15.4762C36.2821 15.9524 36.0348 16.4286 35.7874 16.9048C35.5401 17.1429 34.0562 19.0476 34.0562 19.2857ZM17.2381 32.619C16.9908 33.0952 16.9908 33.8095 17.2381 34.0476C17.4854 34.5238 17.9801 35 18.2274 35.4762C18.7221 35.9524 19.2167 36.6667 19.464 37.1429C19.7113 37.619 19.7113 38.3333 19.464 38.8095C18.9694 39.5238 18.2274 39.7619 17.7328 40.2381C17.2381 40.7143 16.4961 41.1905 16.2488 41.6667C16.0015 41.6667 16.0015 41.9048 16.0015 42.1429C16.0015 42.381 16.2488 42.619 16.2488 42.619C16.7435 43.3333 17.7328 43.8095 18.4747 44.0476C18.7221 44.2857 19.2167 44.7619 19.7113 45C20.4533 45.2381 20.7006 46.1905 20.4533 46.9048C19.7113 47.8571 19.464 49.0476 18.9694 50C18.7221 50.2381 18.7221 50.4762 18.7221 50.7143C18.7221 50.9524 19.2167 51.4286 19.464 51.6667C20.7006 51.9048 21.6899 51.9048 22.9266 52.1429C23.6685 52.1429 24.1632 52.381 24.6578 53.3333C24.9052 53.8095 24.6578 55.2381 24.6578 55.9524C24.6578 56.4286 24.4105 57.1429 24.4105 57.619C24.6578 57.8571 24.6578 57.8571 24.6578 57.8571C24.6578 58.0952 24.6578 58.0952 24.6578 58.0952C24.9052 58.3333 25.1525 58.3333 25.1525 58.3333C25.8945 58.5714 26.8838 58.0952 27.3784 58.0952C28.1204 57.8571 29.1097 57.619 29.8517 57.619C30.5936 57.381 31.3356 58.0952 31.3356 58.8095C31.5829 59.0476 31.8303 59.7619 32.0776 60C32.3249 60.7143 32.3249 61.1905 32.5722 61.6667C32.8196 61.9048 32.8196 62.1429 32.8196 62.381C33.0669 62.619 33.8089 62.619 34.0562 62.381L36.7767 60.7143C37.0241 60.4762 37.2714 60.4762 37.5187 60.2381C38.0134 60 38.7553 60 39.25 60.2381C39.7446 60.7143 40.2393 61.4286 40.7339 61.9048C40.9813 62.1429 41.2286 62.381 41.4759 62.619C41.9706 63.0952 42.2179 63.5714 42.9599 63.5714C42.9599 63.5714 43.2072 63.5714 43.4545 63.3333C43.4545 63.3333 43.9492 62.619 43.9492 62.381C44.4438 61.6667 45.1858 60.9524 45.6804 60C45.9278 59.5238 46.6697 59.0476 47.4117 59.2857C47.659 59.2857 47.9064 59.5238 48.1537 59.5238L50.6269 60.7143C51.1216 60.7143 51.3689 60.9524 51.8635 60.9524C51.8635 60.9524 52.1109 60.7143 52.3582 60.7143C52.6055 60.4762 52.6055 60.2381 52.6055 60.2381L53.1002 57.381C53.1002 57.1429 53.1002 56.9048 53.1002 56.6667C53.3475 56.1905 53.3475 55.9524 53.5948 55.7143C54.0895 55.2381 54.3368 55.2381 54.8314 55.2381L58.294 55.4762C58.294 55.4762 58.294 55.4762 58.5413 55.4762C59.036 55.4762 59.5306 55 59.7779 54.5238C59.7779 54.0476 59.5306 53.0952 59.2833 52.619C59.2833 51.9048 59.036 51.4286 58.7886 50.7143C58.5413 49.7619 59.036 49.0476 60.0253 48.8095C60.0253 48.8095 60.2726 48.5714 60.5199 48.5714C61.0146 48.3333 61.7565 48.0952 62.2512 47.8571C62.7458 47.8571 63.2405 47.619 63.7351 47.381C63.9825 46.9048 64.2298 46.4286 63.7351 45.9524C63.4878 45.4762 62.9932 45 62.7458 44.5238C62.2512 44.0476 61.7565 43.3333 61.5092 42.8571C61.2619 42.381 61.2619 41.9048 61.5092 41.4286C61.5092 41.1905 61.7565 40.9524 62.0039 40.7143C62.2512 40.4762 62.4985 40.2381 62.7458 40L63.9825 39.2857C64.2298 39.0476 64.4771 38.5714 64.7244 38.3333C64.9718 38.0952 64.9718 37.381 64.7244 37.1429C64.4771 36.6667 62.9932 36.1905 62.4985 35.7143C62.2512 35.4762 61.7565 35.2381 61.2619 35C60.7672 34.7619 60.5199 34.2857 60.5199 33.5714C60.5199 32.8571 61.0146 32.1429 61.2619 31.6667C61.5092 30.9524 62.2512 30 62.2512 29.2857C62.2512 29.0476 62.0039 28.8095 62.0039 28.5714C61.7565 28.3333 61.7565 28.3333 61.5092 28.3333C61.0146 28.3333 60.2726 28.0952 59.5306 28.0952C59.036 27.8571 58.294 27.8571 57.7993 27.8571C57.0574 27.619 56.3154 27.1429 56.3154 26.1905C56.3154 25.4762 56.3154 24.7619 56.3154 24.0476C56.3154 23.5714 56.5627 22.8571 56.3154 22.381C56.3154 22.1429 56.3154 22.1429 56.3154 22.1429L56.0681 21.9048C56.0681 21.6667 55.5734 21.4286 55.5734 21.4286C55.3261 21.4286 55.0788 21.6667 55.0788 21.6667C54.5841 21.6667 54.0895 21.9048 53.5948 21.9048C52.8528 22.1429 52.1109 22.1429 51.6162 22.381C50.8743 22.619 50.1323 22.1429 49.885 21.6667C49.3903 21.1905 49.3903 20.4762 49.143 20C48.8957 19.5238 48.6483 18.8095 48.401 18.3333C48.401 18.0952 48.1537 17.8571 48.1537 17.619C47.9064 17.381 47.4117 17.381 47.1644 17.381C46.4224 17.619 45.1858 18.5714 44.6911 19.0476L43.7018 19.7619C42.9599 20.2381 42.2179 20 41.7232 19.5238L40.7339 18.5714C40.7339 18.5714 40.7339 18.5714 40.4866 18.5714V18.3333L39.25 17.1429C39.0027 16.9048 38.7553 16.6667 38.7553 16.4286C38.508 16.4286 38.2607 16.4286 38.0134 16.4286C38.0134 16.4286 37.766 16.6667 37.5187 16.6667C37.5187 16.9048 37.2714 17.381 37.0241 17.619C36.7767 18.0952 36.5294 18.3333 36.2821 18.8095C36.0348 19.0476 35.7874 19.5238 35.5401 19.7619C35.2928 20.4762 34.7982 20.9524 34.0562 20.7143C33.3142 20.7143 31.8303 20 31.0883 19.7619C30.841 19.5238 29.8517 19.0476 29.357 19.0476C28.8624 19.0476 28.615 19.5238 28.3677 19.7619C28.3677 20.4762 28.1204 21.1905 28.1204 21.6667C27.8731 22.1429 27.8731 22.8571 27.8731 23.3333C27.8731 24.2857 27.1311 24.7619 26.1418 24.7619C25.3998 24.7619 24.6578 24.7619 23.9159 24.7619C23.4212 24.7619 22.6792 24.5238 22.1846 24.5238C21.9373 24.5238 21.9373 24.7619 21.9373 24.7619H21.6899C21.4426 25 21.1953 25.4762 21.1953 25.7143C21.4426 26.1905 21.6899 26.9048 21.6899 27.381C21.9373 28.0952 22.1846 29.0476 22.1846 29.7619C22.1846 30.4762 21.6899 31.1905 20.948 31.1905C20.7006 31.4286 19.9587 31.6667 19.7113 31.6667C19.2167 31.9048 18.7221 32.1429 18.2274 32.381C17.9801 32.381 17.2381 32.619 17.2381 32.619Z" fill="#F9BC2D"/>
<path fill-rule="evenodd" clip-rule="evenodd" d="M29.6043 34.2857C29.6043 35.9523 29.6043 37.3809 30.5936 38.5714C33.0669 41.4285 38.2607 39.9999 38.2607 35.238C38.2607 34.2857 38.2607 33.3333 38.0134 32.3809C37.5187 31.4285 36.7767 30.7142 35.7874 30.238C34.0562 29.2857 31.8303 29.7618 30.841 31.1904C30.099 31.9047 29.6043 33.0952 29.6043 34.2857ZM31.0883 34.2857C31.0883 35.4761 31.0883 36.6666 31.8303 37.619C32.3249 38.0952 33.0669 38.5714 33.5615 38.5714C34.5508 38.5714 35.0455 38.3333 35.7874 37.8571C36.5294 37.1428 36.7767 36.1904 36.7767 35.238C36.7767 34.5238 36.7767 33.8095 36.5294 33.0952C36.2821 32.3809 35.7874 31.9047 35.0455 31.4285C34.0562 30.9523 32.5722 31.1904 32.0776 31.9047C31.5829 32.619 31.0883 33.5714 31.0883 34.2857ZM44.1965 44.9999C44.1965 45.7142 44.4438 46.9047 44.9385 47.8571C45.4331 48.3333 45.9278 48.8095 46.6697 48.8095C47.1644 48.8095 47.659 48.8095 48.1537 48.5714C49.3903 47.8571 49.885 46.9047 49.885 45.7142C49.885 44.2857 49.885 43.3333 48.8957 42.3809C48.1537 41.1904 45.9278 41.1904 44.9385 42.3809C44.4438 43.0952 44.1965 44.0476 44.1965 44.9999ZM42.7125 44.9999C42.7125 46.4285 42.9599 47.619 43.7018 48.5714C44.1965 49.5238 45.4331 50.238 46.6697 50.238C47.659 50.238 48.401 50.238 48.8957 49.7619C50.6269 48.8095 51.3689 47.3809 51.3689 45.7142C51.3689 43.8095 51.3689 42.619 50.1323 41.4285C48.6483 39.5238 45.1858 39.2857 43.7018 41.4285C43.2072 42.3809 42.7125 43.5714 42.7125 44.9999Z" fill="#F9BC2D"/>
<path fill-rule="evenodd" clip-rule="evenodd" d="M34.0562 50.2382H36.0348C36.2821 49.762 36.5294 49.5239 36.7767 49.0477C37.0241 48.5715 37.2714 48.0953 37.5187 47.6191C38.508 45.4762 39.7446 43.3334 40.7339 41.1905C40.9813 40.9524 41.2286 40.4762 41.4759 40.0001C41.7232 39.762 41.7232 39.5239 41.9706 39.2858L45.6804 32.381C45.9278 31.9048 46.9171 30.0001 46.9171 29.762H44.9385L39.25 40.7143C39.0027 40.9524 39.0027 40.9524 38.7553 41.1905L36.7767 45.0001C36.5294 45.4762 36.2821 45.9524 36.0348 46.4286C35.5401 47.381 34.5508 49.2858 34.0562 50.2382Z" fill="#F9BC2D"/>
</g>
<defs>
<clipPath id="clip0_595_331">
<rect width="51" height="50" fill="white" transform="translate(14.5 15)"/>
</clipPath>
</defs>
</svg>
