<svg width="66" height="66" viewBox="0 0 66 66" fill="none" xmlns="http://www.w3.org/2000/svg">
<g clip-path="url(#clip0_403_354)">
<path fill-rule="evenodd" clip-rule="evenodd" d="M38.46 8.40121C37.94 8.6629 37.42 9.18628 36.9 9.18628C36.64 8.92459 36.12 8.6629 35.86 8.40121C35.6 8.13952 35.6 8.13952 35.34 7.87783C35.08 7.61614 34.82 7.35445 34.56 7.35445C33.52 6.30769 31.96 4.47586 30.4 6.56938C29.62 7.35445 27.02 9.97135 27.02 11.0181C27.02 12.3266 27.8 12.5883 28.32 13.1116L31.44 15.7285C31.44 16.2519 30.92 16.7753 30.92 17.2987C29.88 17.2987 25.72 17.037 24.94 17.8221C24.42 18.0837 24.16 18.6071 24.16 19.3922V24.1026C24.16 25.4111 25.46 25.9344 26.76 25.9344C28.06 25.9344 29.62 25.9344 30.92 25.9344C31.18 26.4578 31.44 26.9812 31.44 27.5046L27.8 30.3832C26.5 31.6916 27.02 32.7384 27.8 33.7851L30.14 36.6637C31.18 37.7105 32.22 37.9722 33.52 36.9254C34.04 36.6637 34.3 36.1404 34.82 35.8787L37.16 34.0468C37.16 34.0468 37.16 34.0468 37.42 34.3085L38.46 34.8319C38.2 35.3553 38.2 35.8787 37.94 36.4021C37.94 36.9254 37.94 37.4488 37.68 37.9722C37.16 41.1125 37.16 41.6358 40.54 42.1592C41.06 42.1592 41.58 42.4209 42.1 42.4209C43.14 42.6826 44.44 43.206 45.48 42.1592C46 41.6358 46 41.1125 46 40.3274C46.26 39.5423 46.26 39.0189 46.26 38.4956C46.52 37.7105 46.78 36.9254 46.78 36.4021C47.3 36.4021 47.82 36.1404 48.34 36.1404C48.86 36.9254 49.38 37.9722 49.9 39.0189C51.98 42.6826 53.02 41.1125 55.88 39.5423C60.04 37.1871 58.48 36.9254 55.62 31.6916L56.66 30.6449C59.26 31.1682 62.12 33.5235 63.68 31.4299C63.94 31.1682 64.2 30.3832 64.2 29.8598C64.72 28.813 65.5 26.7195 65.5 25.9344C65.5 24.1026 63.68 23.8409 61.6 23.0559C61.08 22.7942 60.04 22.5325 59.78 22.5325V20.7006C60.04 20.7006 60.82 20.439 61.34 20.1773C64.2 19.1305 65.5 18.8688 65.5 17.5604V17.2987C65.5 16.5136 64.98 15.4668 64.2 13.635C64.2 13.1116 63.94 12.3266 63.68 11.8032C62.64 10.233 60.82 11.2798 59.26 11.8032C58.48 12.0649 57.44 12.3266 56.66 12.8499C56.4 12.3266 55.88 11.8032 55.62 11.5415C57.18 8.92459 59.78 6.046 57.7 4.73755C57.18 4.21417 56.66 4.21417 56.14 3.69079L53.8 2.38234C52.76 1.85896 51.46 1.85896 50.94 2.90572C50.68 3.16741 50.68 3.4291 50.42 3.69079C50.16 3.95248 50.16 3.95248 49.9 4.21417L48.34 7.09276C46.26 7.09276 46.78 7.09276 46.26 3.95248C45.74 0.550506 45.48 0.288816 42.36 0.812196C37.94 1.33558 37.16 1.33558 37.68 5.26093L38.46 8.40121ZM52.5 39.5423C53.02 39.5423 54.58 38.4956 54.84 38.2339C55.36 37.9722 56.4 37.4488 56.66 36.9254C56.66 36.6637 56.14 35.8787 56.14 35.8787C55.62 34.5702 54.84 33.5235 54.32 32.4767L53.8 31.4299L56.14 28.5513L57.18 28.813C57.7 29.0747 58.48 29.3364 59 29.5981C59.52 29.5981 61.6 30.6449 62.12 30.6449C62.38 30.3832 62.64 29.5981 62.64 29.3364C62.9 28.5513 63.68 26.7195 63.94 25.9344C63.42 25.4111 61.34 24.8877 60.82 24.626C60.56 24.626 59.78 24.1026 59.52 24.1026H57.96V19.6539L59 19.3922C59.52 19.1305 60.04 18.8688 60.82 18.6071C61.08 18.3454 63.16 17.8221 63.94 17.2987C63.68 16.5136 63.16 14.9435 62.64 14.1584C62.64 13.8967 62.38 13.1116 62.38 12.8499C62.12 12.8499 62.12 12.8499 62.12 12.5883C61.86 12.5883 60.3 13.3733 59.78 13.3733C59 13.635 58.22 13.8967 57.44 14.4201L56.14 14.9435L55.36 13.635C55.1 13.3733 54.58 12.8499 54.32 12.3266L53.8 11.5415L54.32 10.7564C54.58 10.233 54.84 9.70966 55.1 9.44797C55.36 8.92459 56.66 6.56938 56.66 6.046C56.14 5.78431 55.62 5.52262 55.1 5.26093L52.76 3.95248C52.76 3.69079 52.24 3.69079 52.24 3.69079C51.98 3.95248 51.98 4.21417 51.98 4.47586C51.72 4.73755 51.46 4.99924 51.46 5.26093L49.38 8.92459H48.34C47.56 8.92459 46.52 8.92459 45.74 8.13952C45.22 7.61614 44.96 7.09276 44.96 6.30769C44.7 5.52262 44.7 4.99924 44.44 4.21417C44.44 3.95248 44.44 2.64403 44.18 2.12065C43.66 2.12065 42.88 2.38234 42.62 2.38234C42.1 2.38234 39.76 2.90572 39.24 3.16741C39.24 3.4291 39.24 4.47586 39.5 4.73755V4.99924L40.28 9.18628L39.24 9.70966C38.72 10.233 37.94 10.7564 37.42 10.7564L36.64 11.0181L36.12 10.4947C35.6 10.233 35.08 9.97135 34.56 9.44797L34.3 9.18628C34.04 8.92459 33.78 8.6629 33.52 8.6629C33.26 8.40121 32.22 7.35445 31.96 7.35445C31.7 7.35445 31.7 7.61614 31.7 7.61614C30.92 8.13952 29.1 10.233 28.84 11.2798C28.84 11.5415 29.1 11.8032 29.36 11.8032L33.26 14.9435L33 15.9902C33 16.5136 33 16.7753 32.74 17.2987C32.74 17.2987 32.74 17.2987 32.74 17.5604L32.48 19.1305H30.92C29.88 19.1305 26.76 18.8688 25.72 19.1305C25.72 19.1305 25.72 19.1305 25.72 19.3922V24.1026C25.98 24.1026 26.5 24.3643 26.76 24.3643C28.06 24.3643 29.62 24.3643 30.92 24.3643H32.22L32.48 25.6728C32.74 26.1961 33 26.4578 33 26.9812L33.26 28.028L28.84 31.6916C28.84 31.9533 28.84 31.9533 28.58 31.9533C28.84 32.215 29.1 32.4767 29.1 32.7384L31.44 35.3553C31.44 35.617 31.7 35.8787 31.96 35.8787C32.22 35.8787 32.48 35.617 32.48 35.617C33 35.3553 33.26 34.8319 33.52 34.5702H33.78L37.16 31.6916L38.2 32.7384L40.02 33.7851V34.8319C40.02 35.3553 39.76 36.1404 39.76 36.6637C39.5 37.1871 39.5 37.7105 39.5 38.2339C39.5 38.7573 39.24 39.804 39.24 40.0657C39.5 40.3274 40.54 40.5891 40.8 40.5891C41.32 40.5891 41.84 40.8508 42.36 40.8508C42.88 40.8508 43.14 41.1125 43.66 41.1125C43.92 41.1125 43.92 41.1125 44.18 41.1125C44.18 40.8508 44.44 40.3274 44.44 40.0657C44.44 39.2806 44.7 38.7573 44.7 37.9722C44.96 37.4488 44.96 36.9254 44.96 36.4021V34.5702H46.78C47.04 34.5702 47.82 34.3085 48.34 34.3085H49.38L49.9 35.3553C50.42 36.1404 50.94 37.1871 51.46 38.2339C51.72 38.4956 52.24 39.2806 52.5 39.5423Z" fill="#FFB629"/>
<path fill-rule="evenodd" clip-rule="evenodd" d="M0.5 41.6358V51.5801C0.5 52.3651 1.28 52.6268 1.8 52.6268C2.32 52.3651 2.32 51.8417 2.32 50.795C2.32 49.2248 2.32 42.1592 2.58 41.3741C3.1 38.2339 5.96 39.0189 9.34 39.0189C10.64 39.0189 11.68 40.3274 11.68 41.6358V58.9074C11.68 60.4775 10.64 61.786 9.34 61.786C5.7 61.786 2.84 62.3093 2.32 58.9074C2.06 57.0755 3.1 54.4586 1.54 54.4586C1.02 54.4586 0.5 54.7203 0.5 55.2437V59.1691C0.5 61.5243 2.84 63.8795 5.44 63.8795H8.82C11.68 63.8795 13.76 61.5243 13.76 58.9074V57.3372C14.28 57.3372 15.06 57.3372 15.58 57.5989C19.74 58.1223 20.26 58.6457 24.16 60.4775L27.8 62.3093C28.84 62.571 29.62 63.0944 30.4 63.6178C33 64.9262 33.78 65.4496 37.16 65.4496C39.5 65.4496 41.58 64.1412 43.4 63.0944C44.44 62.8327 45.48 62.3093 46.26 61.786L57.96 55.7671C58.74 55.5054 60.56 54.7203 60.56 53.9353C60.56 51.8417 57.44 53.9353 56.92 54.197C56.14 54.7203 55.1 54.982 54.06 55.5054L43.4 61.0009C38.72 63.3561 36.64 64.9262 31.7 61.786C30.66 61.2626 29.88 61.0009 28.84 60.4775L26.24 59.1691C21.56 56.8139 20.52 56.2905 15.58 55.5054C15.06 55.5054 14.28 55.2437 13.76 55.2437V43.206H28.06C29.1 43.206 30.14 44.7761 31.18 45.8229L36.9 51.3184C37.68 52.3651 37.42 54.7203 35.08 54.7203C34.04 54.7203 33.26 53.6736 32.74 53.1502C31.96 52.6268 27.28 47.6547 27.02 47.6547C25.98 47.6547 25.46 47.9164 25.72 48.7015C25.98 49.2248 26.5 49.7482 26.76 50.0099L31.7 54.982C32.74 56.0288 33.52 56.8139 35.34 56.8139C37.16 56.8139 38.46 55.5054 38.98 53.9353C39.24 53.1502 39.24 53.4119 40.54 53.1502L61.6 47.9164C62.64 47.9164 63.42 48.7015 63.42 49.7482C63.42 51.0567 61.86 51.3184 61.86 52.1034C61.86 53.1502 63.16 53.9353 64.72 51.8417C66.8 49.2248 64.46 45.0378 60.82 45.8229C58.48 46.6079 40.02 51.3184 38.98 51.3184C38.98 50.2716 37.68 49.4865 37.16 48.9632L30.66 42.1592C28.84 40.8508 25.72 41.3741 22.6 41.3741C19.74 41.3741 16.88 41.3741 13.76 41.3741C13.76 40.8508 13.5 39.5423 12.46 38.2339C10.64 36.402 7.78 36.9254 5.44 36.9254C2.84 36.9254 0.5 39.0189 0.5 41.6358Z" fill="#FFB629"/>
<path fill-rule="evenodd" clip-rule="evenodd" d="M7.00001 54.1969C7.00001 56.0288 8.30001 54.7203 8.30001 56.8138C8.30001 58.1223 6.74001 58.1223 6.22001 57.5989C5.18001 56.5521 6.74001 54.982 4.92001 54.982C4.66001 54.982 4.14001 55.2437 4.14001 55.5054C3.88001 55.7671 3.88001 56.0288 3.88001 56.2905C3.62001 57.3372 4.40001 58.6457 5.18001 59.4307C8.30001 61.5243 11.94 57.5989 9.60001 54.7203C8.56001 52.8885 7.00001 53.6736 7.00001 54.1969Z" fill="#FFB629"/>
<path fill-rule="evenodd" clip-rule="evenodd" d="M41.84 26.1961C41.06 25.6727 39.76 24.3642 39.24 23.5792C38.2 22.5324 37.42 21.2239 36.38 21.2239C35.6 21.2239 35.6 22.009 35.6 22.5324C35.6 22.7941 39.5 26.4578 40.02 27.2428C40.54 27.7662 41.32 28.813 42.88 27.7662C43.4 27.2428 50.68 20.1772 51.98 18.607C53.02 17.5603 54.06 17.0369 54.06 15.7285C54.06 15.2051 53.54 15.2051 53.02 15.2051C52.5 15.2051 51.72 15.9901 51.46 16.2518C50.16 17.5603 42.36 25.6727 41.84 26.1961Z" fill="#FFB629"/>
</g>
<defs>
<clipPath id="clip0_403_354">
<rect width="65" height="65" fill="white" transform="translate(0.5 0.5)"/>
</clipPath>
</defs>
</svg>
