<svg width="61" height="58" viewBox="0 0 61 58" fill="none" xmlns="http://www.w3.org/2000/svg">
<path d="M53.0632 31.9924C52.4008 31.9924 51.7083 31.788 51.046 31.6421C49.7046 31.3555 48.3864 30.9751 47.1018 30.5037C45.7051 30.0111 44.1697 30.0367 42.7913 30.5755C41.4128 31.1144 40.2886 32.1285 39.635 33.4226L38.9726 34.7361C36.0401 33.1546 33.3454 31.1903 30.9639 28.8983C28.5997 26.5895 26.5736 23.977 24.9423 21.134L26.2068 20.3167C27.5417 19.683 28.5877 18.5931 29.1435 17.2567C29.6993 15.9203 29.7257 14.4318 29.2176 13.0777C28.7396 11.8296 28.3473 10.5523 28.0434 9.25392C27.8928 8.61176 27.7724 7.94041 27.6821 7.26905C27.3165 5.21302 26.2057 3.3511 24.5497 2.0186C22.8938 0.686105 20.8015 -0.0294048 18.6497 0.000926184H9.61723C8.31967 -0.0108854 7.03471 0.24849 5.84984 0.761395C4.66496 1.2743 3.60799 2.02869 2.75087 2.97322C1.89376 3.91774 1.25662 5.03022 0.88284 6.23492C0.509059 7.43962 0.407407 8.70825 0.584806 9.95446C2.18878 22.183 7.94933 33.5449 16.9565 42.2455C25.9637 50.9461 37.7042 56.4895 50.3234 58H51.4675C53.6877 58.0031 55.8313 57.2134 57.4891 55.7816C58.4416 54.9557 59.2025 53.9432 59.7215 52.8111C60.2405 51.6789 60.5058 50.4529 60.4999 49.214V40.4572C60.463 38.4297 59.7015 36.4774 58.3452 34.9337C56.9889 33.3899 55.122 32.3503 53.0632 31.9924ZM54.5686 49.5059C54.5681 49.9204 54.4765 50.3299 54.3 50.7074C54.1235 51.0849 53.8661 51.4216 53.5449 51.6951C53.2085 51.9767 52.8151 52.1871 52.39 52.3127C51.9648 52.4384 51.5173 52.4766 51.0761 52.4248C39.8003 51.0232 29.3267 46.0221 21.3074 38.2105C13.288 30.3989 8.1793 20.2213 6.78707 9.28311C6.73915 8.85554 6.78115 8.42299 6.91052 8.0116C7.03989 7.60021 7.25396 7.21852 7.53978 6.88959C7.82192 6.57823 8.16922 6.32869 8.55857 6.15758C8.94792 5.98646 9.37039 5.89768 9.79788 5.89716H18.8303C19.5305 5.88205 20.2141 6.10405 20.7637 6.52493C21.3132 6.94582 21.6942 7.53926 21.8411 8.20311C21.9615 9.00095 22.1121 9.78906 22.2927 10.5674C22.6405 12.1061 23.1034 13.6182 23.6777 15.0918L19.4626 16.9891C19.1022 17.1494 18.778 17.3771 18.5086 17.6593C18.2393 17.9414 18.03 18.2723 17.893 18.633C17.7559 18.9937 17.6936 19.3771 17.7098 19.7612C17.726 20.1453 17.8203 20.5226 17.9873 20.8712C22.3204 29.8696 29.7814 37.1028 39.0629 41.3037C39.796 41.5957 40.6181 41.5957 41.3512 41.3037C41.7266 41.1735 42.0717 40.9723 42.3663 40.7117C42.6609 40.4512 42.8992 40.1365 43.0673 39.7859L44.934 35.6994C46.4905 36.239 48.0791 36.6874 49.6911 37.0421C50.494 37.2172 51.3069 37.3632 52.1299 37.4799C52.8146 37.6224 53.4267 37.9917 53.8609 38.5245C54.295 39.0573 54.524 39.7201 54.5084 40.3989L54.5686 49.5059Z" fill="#636466"/>
</svg>
