<svg width="80" height="80" viewBox="0 0 80 80" fill="none" xmlns="http://www.w3.org/2000/svg">
<rect width="80" height="80" rx="15" fill="#284B78"/>
<g clip-path="url(#clip0_595_337)">
<path fill-rule="evenodd" clip-rule="evenodd" d="M22.3978 15.4148V17.7018H16.336C15.1702 17.7018 14.0045 18.8453 14.0045 19.9888V31.8812C14.0045 33.0247 15.1702 34.1682 16.336 34.1682H22.3978V44.0022H14.9371C14.2377 44.0022 14.0045 44.4596 14.0045 44.917V60.926C14.0045 62.9843 16.336 65.5 18.6674 65.5H58.3023C59.4681 65.5 59.2349 64.1278 59.2349 62.9843C59.2349 61.8408 59.2349 60.6973 59.2349 59.5538C59.4681 59.5538 59.7012 59.3251 60.1675 59.0964C61.1001 58.4103 64.131 57.0381 64.8304 56.5807C66.4625 55.4372 66.2293 52.2354 63.4316 52.2354C62.9653 52.2354 61.7995 52.6928 61.3332 52.9215C60.8669 53.1502 60.6338 53.1502 60.1675 53.3789C59.9344 53.3789 59.4681 53.6076 59.2349 53.6076C59.2349 52.4641 59.2349 51.3206 59.2349 50.1771C59.2349 49.491 59.0018 49.0336 59.4681 48.8049C59.7012 48.5762 59.7012 48.5762 59.9344 48.3475C63.4316 45.1457 63.4316 39.8857 60.1675 36.4552C59.0018 35.5404 59.2349 36.6839 59.2349 33.4821V15.6435C59.2349 14.9574 59.0018 14.5 58.3023 14.5H23.0972C22.6309 14.5 22.3978 14.7287 22.3978 15.4148ZM42.2152 50.4058H42.9147V58.8677H42.2152V50.4058ZM27.0607 55.6659H36.3866V57.4955H21.2321V59.0964H36.3866C36.3866 60.0112 37.086 60.6973 38.0186 60.6973H40.8164C41.5158 60.6973 42.2152 60.2399 42.4484 59.5538H42.6815L44.0804 59.7825C45.7124 60.0112 47.3445 60.6973 49.2096 61.3834C51.7742 62.2982 53.6394 62.7556 56.204 61.1547L57.6029 60.4686V62.9843C57.6029 63.213 57.6029 63.4417 57.6029 63.8991H18.6674C17.2686 63.8991 15.6365 62.2982 15.6365 60.926V45.6031H24.0298V34.1682H37.5523C38.9512 34.1682 39.8838 33.2534 39.8838 31.8812V20.2175C39.8838 18.8453 38.9512 17.7018 37.5523 17.7018H24.0298V16.1009H57.6029V33.4821C57.6029 33.9395 57.6029 34.3969 57.6029 34.8543C56.204 34.3969 54.8051 34.1682 53.1731 34.3969C48.7433 34.8543 45.4793 38.9709 46.1787 43.5448C46.645 47.8901 50.8416 51.0919 55.2714 50.4058C56.204 50.4058 56.9035 50.1771 57.6029 49.9484V50.1771C57.6029 51.3206 57.6029 52.4641 57.6029 53.6076C57.6029 52.9215 57.1366 52.2354 56.4372 51.778C55.5046 51.0919 54.1057 51.3206 52.94 51.3206C52.7068 51.3206 52.0074 51.3206 51.5411 51.0919C51.3079 51.0919 51.0748 51.0919 50.8416 50.8632C50.3754 50.8632 49.6759 50.6345 49.2096 50.4058C47.5776 49.9484 45.9456 49.7197 44.3135 49.7197H42.4484C42.2152 49.491 42.2152 49.2623 41.9821 49.2623C41.7489 48.8049 41.2826 48.8049 40.8164 48.8049H38.0186C37.086 48.8049 36.3866 49.491 36.3866 50.1771V54.065H27.0607V55.6659ZM53.4063 35.9978C49.9091 36.4552 47.1113 39.6569 47.5776 43.3161C48.0439 46.7466 51.5411 49.491 55.2714 48.8049C58.7686 48.3475 61.3332 45.1457 60.8669 41.4865C60.4007 38.0561 57.1366 35.3117 53.4063 35.9978ZM44.0804 57.9529C46.1787 58.1816 48.0439 59.0964 49.6759 59.7825C52.0074 60.4686 53.1731 60.926 55.5046 59.7825L62.499 55.8946C63.4316 55.4372 64.5973 54.9798 64.131 54.065C63.6647 53.6076 62.2658 54.2937 61.1001 54.7511C55.7377 56.8094 56.4372 56.352 49.9091 56.352V54.7511C51.0748 54.7511 54.1057 54.9798 55.0383 54.7511C55.7377 54.5224 55.9709 53.6076 55.5046 53.1502C55.0383 52.9215 53.6394 53.1502 52.94 53.1502C50.6085 53.1502 51.3079 52.9215 48.7433 52.2354C47.3445 51.778 45.7124 51.5493 44.0804 51.5493C44.0804 52.6928 44.0804 57.2668 44.0804 57.9529ZM19.3669 25.0202C18.2012 25.7063 17.2686 26.8498 17.2686 28.9081C17.2686 31.4238 17.2686 30.9664 21.4652 30.9664C25.6618 30.9664 25.6618 31.1951 25.6618 28.9081C25.6618 27.9933 25.6618 27.3072 25.1955 26.3924C24.4961 25.4776 24.0298 25.4776 23.5635 24.7915C25.4287 21.5897 20.7658 19.7601 19.3669 22.2758C18.6674 23.4193 19.1337 23.8767 19.3669 25.0202ZM18.9006 29.3655C19.1337 29.3655 19.1337 29.3655 19.3669 29.3655C20.0663 29.3655 20.7658 29.3655 21.4652 29.3655C22.3978 29.3655 23.0972 29.3655 23.7967 29.3655H24.0298C24.0298 29.1368 24.0298 29.1368 24.0298 28.9081C24.0298 28.4507 24.0298 27.7646 23.7967 27.3072C23.3304 26.6211 22.8641 26.3924 22.3978 25.935L21.6983 25.0202L22.1646 24.1054C22.3978 23.648 22.6309 23.1906 22.1646 22.9619C21.6983 22.5045 20.9989 22.5045 20.7658 22.9619C20.7658 23.1906 20.5326 23.4193 20.5326 23.4193C20.7658 23.648 20.7658 24.1054 20.9989 24.5628L21.2321 25.7063L20.2995 26.3924C19.1337 26.8498 18.9006 27.7646 18.9006 28.9081C18.9006 29.1368 18.9006 29.1368 18.9006 29.3655ZM27.9933 21.1323C27.0607 21.5897 27.2939 22.9619 27.2939 23.8767C27.2939 25.2489 27.0607 25.935 28.6927 25.935C36.6197 25.935 35.6871 26.6211 35.6871 23.1906C35.6871 21.8184 35.9203 21.1323 34.5214 21.1323C33.5888 21.1323 28.4596 20.9036 27.9933 21.1323ZM28.9259 22.7332C28.9259 22.9619 28.9259 23.648 28.9259 23.8767C28.9259 24.1054 28.9259 24.3341 28.9259 24.3341C30.3248 24.3341 31.7236 24.5628 33.1225 24.5628C33.3557 24.5628 33.822 24.5628 34.2883 24.5628V24.3341C34.2883 23.8767 34.0551 23.648 34.0551 23.1906C34.0551 22.9619 34.2883 22.7332 34.2883 22.7332C33.1225 22.7332 32.1899 22.5045 31.2574 22.5045C30.5579 22.5045 30.0916 22.5045 29.3922 22.5045C29.159 22.5045 29.159 22.5045 28.9259 22.7332ZM38.0186 59.0964H40.8164V50.1771H38.0186V59.0964ZM25.6618 40.8004H43.381V39.1996H25.6618V40.8004ZM53.4063 38.0561C53.4063 38.9709 52.0074 38.5135 51.7742 40.1143C51.5411 41.2578 52.0074 42.4013 52.7068 42.63C53.4063 43.3161 54.8051 43.0874 55.0383 43.7735C55.0383 44.4596 54.3388 45.8318 53.1731 44.0022H51.7742C51.7742 46.2892 53.4063 45.8318 53.4063 46.7466V47.4327H55.0383V46.5179C55.2714 46.0605 56.204 46.0605 56.6703 44.6883C56.9035 43.5448 56.204 42.63 55.7377 42.1726C54.8051 41.4865 53.6394 41.7152 53.4063 41.0291C53.1731 40.1143 54.1057 39.6569 54.8051 40.1143C54.8051 40.3431 54.8051 40.3431 54.8051 40.3431L55.0383 40.8004H56.6703C56.4372 38.5135 55.0383 38.9709 55.0383 38.0561V37.37H53.4063V38.0561ZM43.8473 24.5628H55.7377V22.9619H43.8473V24.5628ZM28.2264 30.9664H35.6871V29.3655H28.2264V30.9664ZM16.336 19.3027H37.5523C38.0186 19.3027 38.4849 19.7601 38.4849 20.2175V31.8812C38.4849 32.3386 38.0186 32.5673 37.5523 32.5673H16.336C15.8697 32.5673 15.6365 32.3386 15.6365 31.8812V20.2175C15.6365 19.7601 15.8697 19.3027 16.336 19.3027Z" fill="#F9BC2D"/>
</g>
<defs>
<clipPath id="clip0_595_337">
<rect width="52" height="51" fill="white" transform="translate(14 14.5)"/>
</clipPath>
</defs>
</svg>
