<svg width="80" height="80" viewBox="0 0 80 80" fill="none" xmlns="http://www.w3.org/2000/svg">
<rect width="80" height="80" rx="15" fill="white"/>
<g clip-path="url(#clip0_802_768)">
<path fill-rule="evenodd" clip-rule="evenodd" d="M34.0562 19.2857C33.5616 19.2857 30.3464 17.619 29.3571 17.619C28.1204 17.619 27.1311 18.5714 26.8838 19.5238C26.8838 20 26.1418 22.8571 26.1418 23.3333C25.3999 23.3333 22.432 23.0952 21.9373 23.0952C21.4427 23.0952 21.4427 23.3333 20.948 23.3333C20.206 23.8095 19.7114 24.7619 19.7114 25.7143C19.7114 26.4286 20.7007 29.0476 20.7007 29.7619C19.9587 30 18.2274 30.7143 17.4855 30.9524C16.9908 31.1905 16.4962 31.4286 16.0015 31.6667C15.2596 32.381 15.2596 34.0476 16.0015 35C16.2489 35.4762 17.7328 37.381 17.9801 37.8571C17.7328 38.3333 16.9908 38.8095 16.4962 39.2857C15.5069 40.2381 14.5176 40.7143 14.5176 42.1429C14.5176 44.0476 16.2489 44.7619 17.4855 45.4762C17.9801 45.7143 18.4748 45.9524 18.9694 46.1905C18.4748 47.1429 17.9801 48.5714 17.4855 49.2857C17.2381 49.7619 17.2381 50.2381 17.2381 50.7143C17.2381 51.9048 18.2274 52.8571 19.2167 53.0952C20.206 53.3333 21.69 53.5714 22.6793 53.5714C22.9266 53.5714 22.9266 53.5714 23.1739 53.8095C23.1739 54.0476 22.9266 57.381 22.9266 57.8571C23.1739 58.3333 23.1739 58.5714 23.4213 58.8095V59.0476C24.6579 60.4762 26.1418 60 27.6258 59.5238C28.1204 59.5238 29.6044 59.0476 29.8517 59.0476C30.099 59.5238 30.841 61.4286 31.0883 62.1429C31.3357 62.381 31.3357 62.619 31.3357 62.8571C31.8303 64.2857 34.0562 64.5238 35.0455 63.8095L37.7661 61.9048C38.0134 61.9048 38.0134 61.6667 38.2607 61.6667C38.5081 61.6667 39.4974 62.8571 39.7447 63.0952C39.992 63.3333 39.992 63.3333 40.2393 63.5714C40.9813 64.5238 41.7233 65 42.9599 65C44.4439 65 44.6912 64.2857 45.4332 63.3333C45.6805 62.619 46.6698 61.4286 46.9171 60.7143C47.1644 60.7143 47.4118 60.9524 47.4118 60.9524L50.1323 62.1429C50.627 62.381 51.1216 62.381 51.8636 62.381C52.3582 62.381 53.1002 62.1429 53.3475 61.9048C53.8422 61.4286 54.0895 60.9524 54.0895 60.4762L54.5842 57.619C54.5842 57.381 54.8315 56.9048 54.8315 56.6667L58.294 56.9048C60.0253 57.1429 61.0146 55.9524 61.2619 54.5238C61.2619 54.0476 60.52 50.9524 60.2726 50.2381C60.52 50.2381 60.7673 50 61.0146 50C61.7566 49.7619 64.2298 48.8095 64.7245 48.5714C65.7138 47.619 65.9611 46.1905 64.9718 45C64.4771 44.5238 63.2405 42.619 62.7459 42.1429C62.9932 42.1429 63.7352 41.4286 63.9825 41.1905L64.9718 40.2381C65.2191 40 65.7138 39.7619 65.9611 39.2857C66.7031 38.3333 66.7031 37.1429 65.9611 36.1905C65.4664 35.4762 64.2298 35 63.4879 34.5238C62.9932 34.2857 62.4986 34.0476 62.0039 33.8095C62.0039 33.5714 62.4986 32.619 62.7459 32.1429C63.2405 31.1905 63.7352 30.4762 63.7352 29.2857C63.7352 28.8095 63.4879 28.0952 63.2405 27.619C62.9932 27.1429 62.4986 27.1429 61.7566 26.9048C61.0146 26.6667 58.7887 26.4286 57.7994 26.1905C57.7994 25.4762 58.0467 24.7619 58.0467 24.0476C58.0467 23.8095 58.0467 22.381 58.0467 22.1429C57.7994 21.6667 57.7994 21.4286 57.5521 21.1905C57.5521 21.1905 57.3047 20.7143 57.0574 20.7143C55.5735 19.5238 55.0788 20 53.3475 20.4762C52.6056 20.7143 51.8636 20.7143 51.1216 20.9524C50.8743 20.4762 50.627 20 50.627 19.2857C50.3796 18.8095 50.1323 18.3333 49.885 17.8571C49.6377 17.1429 49.6377 16.9048 49.143 16.4286C48.4011 15.9524 47.9064 15.9524 46.9171 15.9524C46.4225 15.9524 44.4439 17.381 43.7019 17.8571L42.7126 18.5714L41.7233 17.619C41.7233 17.381 41.7233 17.381 41.476 17.381L40.4867 16.1905C39.4974 15.2381 39.4974 15 38.0134 15C37.5188 15 36.7768 15.2381 36.5295 15.4762C36.2821 15.9524 36.0348 16.4286 35.7875 16.9048C35.5402 17.1429 34.0562 19.0476 34.0562 19.2857ZM17.2381 32.619C16.9908 33.0952 16.9908 33.8095 17.2381 34.0476C17.4855 34.5238 17.9801 35 18.2274 35.4762C18.7221 35.9524 19.2167 36.6667 19.4641 37.1429C19.7114 37.619 19.7114 38.3333 19.4641 38.8095C18.9694 39.5238 18.2274 39.7619 17.7328 40.2381C17.2381 40.7143 16.4962 41.1905 16.2489 41.6667C16.0015 41.6667 16.0015 41.9048 16.0015 42.1429C16.0015 42.381 16.2489 42.619 16.2489 42.619C16.7435 43.3333 17.7328 43.8095 18.4748 44.0476C18.7221 44.2857 19.2167 44.7619 19.7114 45C20.4534 45.2381 20.7007 46.1905 20.4534 46.9048C19.7114 47.8571 19.4641 49.0476 18.9694 50C18.7221 50.2381 18.7221 50.4762 18.7221 50.7143C18.7221 50.9524 19.2167 51.4286 19.4641 51.6667C20.7007 51.9048 21.69 51.9048 22.9266 52.1429C23.6686 52.1429 24.1632 52.381 24.6579 53.3333C24.9052 53.8095 24.6579 55.2381 24.6579 55.9524C24.6579 56.4286 24.4106 57.1429 24.4106 57.619C24.6579 57.8571 24.6579 57.8571 24.6579 57.8571C24.6579 58.0952 24.6579 58.0952 24.6579 58.0952C24.9052 58.3333 25.1525 58.3333 25.1525 58.3333C25.8945 58.5714 26.8838 58.0952 27.3785 58.0952C28.1204 57.8571 29.1097 57.619 29.8517 57.619C30.5937 57.381 31.3357 58.0952 31.3357 58.8095C31.583 59.0476 31.8303 59.7619 32.0776 60C32.325 60.7143 32.325 61.1905 32.5723 61.6667C32.8196 61.9048 32.8196 62.1429 32.8196 62.381C33.0669 62.619 33.8089 62.619 34.0562 62.381L36.7768 60.7143C37.0241 60.4762 37.2714 60.4762 37.5188 60.2381C38.0134 60 38.7554 60 39.25 60.2381C39.7447 60.7143 40.2393 61.4286 40.734 61.9048C40.9813 62.1429 41.2286 62.381 41.476 62.619C41.9706 63.0952 42.2179 63.5714 42.9599 63.5714C42.9599 63.5714 43.2072 63.5714 43.4546 63.3333C43.4546 63.3333 43.9492 62.619 43.9492 62.381C44.4439 61.6667 45.1858 60.9524 45.6805 60C45.9278 59.5238 46.6698 59.0476 47.4118 59.2857C47.6591 59.2857 47.9064 59.5238 48.1537 59.5238L50.627 60.7143C51.1216 60.7143 51.3689 60.9524 51.8636 60.9524C51.8636 60.9524 52.1109 60.7143 52.3582 60.7143C52.6056 60.4762 52.6056 60.2381 52.6056 60.2381L53.1002 57.381C53.1002 57.1429 53.1002 56.9048 53.1002 56.6667C53.3475 56.1905 53.3475 55.9524 53.5949 55.7143C54.0895 55.2381 54.3368 55.2381 54.8315 55.2381L58.294 55.4762C58.294 55.4762 58.294 55.4762 58.5414 55.4762C59.036 55.4762 59.5307 55 59.778 54.5238C59.778 54.0476 59.5307 53.0952 59.2833 52.619C59.2833 51.9048 59.036 51.4286 58.7887 50.7143C58.5414 49.7619 59.036 49.0476 60.0253 48.8095C60.0253 48.8095 60.2726 48.5714 60.52 48.5714C61.0146 48.3333 61.7566 48.0952 62.2512 47.8571C62.7459 47.8571 63.2405 47.619 63.7352 47.381C63.9825 46.9048 64.2298 46.4286 63.7352 45.9524C63.4879 45.4762 62.9932 45 62.7459 44.5238C62.2512 44.0476 61.7566 43.3333 61.5093 42.8571C61.2619 42.381 61.2619 41.9048 61.5093 41.4286C61.5093 41.1905 61.7566 40.9524 62.0039 40.7143C62.2512 40.4762 62.4986 40.2381 62.7459 40L63.9825 39.2857C64.2298 39.0476 64.4771 38.5714 64.7245 38.3333C64.9718 38.0952 64.9718 37.381 64.7245 37.1429C64.4771 36.6667 62.9932 36.1905 62.4986 35.7143C62.2512 35.4762 61.7566 35.2381 61.2619 35C60.7673 34.7619 60.52 34.2857 60.52 33.5714C60.52 32.8571 61.0146 32.1429 61.2619 31.6667C61.5093 30.9524 62.2512 30 62.2512 29.2857C62.2512 29.0476 62.0039 28.8095 62.0039 28.5714C61.7566 28.3333 61.7566 28.3333 61.5093 28.3333C61.0146 28.3333 60.2726 28.0952 59.5307 28.0952C59.036 27.8571 58.294 27.8571 57.7994 27.8571C57.0574 27.619 56.3154 27.1429 56.3154 26.1905C56.3154 25.4762 56.3154 24.7619 56.3154 24.0476C56.3154 23.5714 56.5628 22.8571 56.3154 22.381C56.3154 22.1429 56.3154 22.1429 56.3154 22.1429L56.0681 21.9048C56.0681 21.6667 55.5735 21.4286 55.5735 21.4286C55.3261 21.4286 55.0788 21.6667 55.0788 21.6667C54.5842 21.6667 54.0895 21.9048 53.5949 21.9048C52.8529 22.1429 52.1109 22.1429 51.6163 22.381C50.8743 22.619 50.1323 22.1429 49.885 21.6667C49.3904 21.1905 49.3904 20.4762 49.143 20C48.8957 19.5238 48.6484 18.8095 48.4011 18.3333C48.4011 18.0952 48.1537 17.8571 48.1537 17.619C47.9064 17.381 47.4118 17.381 47.1644 17.381C46.4225 17.619 45.1858 18.5714 44.6912 19.0476L43.7019 19.7619C42.9599 20.2381 42.2179 20 41.7233 19.5238L40.734 18.5714C40.734 18.5714 40.734 18.5714 40.4867 18.5714V18.3333L39.25 17.1429C39.0027 16.9048 38.7554 16.6667 38.7554 16.4286C38.5081 16.4286 38.2607 16.4286 38.0134 16.4286C38.0134 16.4286 37.7661 16.6667 37.5188 16.6667C37.5188 16.9048 37.2714 17.381 37.0241 17.619C36.7768 18.0952 36.5295 18.3333 36.2821 18.8095C36.0348 19.0476 35.7875 19.5238 35.5402 19.7619C35.2928 20.4762 34.7982 20.9524 34.0562 20.7143C33.3142 20.7143 31.8303 20 31.0883 19.7619C30.841 19.5238 29.8517 19.0476 29.3571 19.0476C28.8624 19.0476 28.6151 19.5238 28.3678 19.7619C28.3678 20.4762 28.1204 21.1905 28.1204 21.6667C27.8731 22.1429 27.8731 22.8571 27.8731 23.3333C27.8731 24.2857 27.1311 24.7619 26.1418 24.7619C25.3999 24.7619 24.6579 24.7619 23.9159 24.7619C23.4213 24.7619 22.6793 24.5238 22.1846 24.5238C21.9373 24.5238 21.9373 24.7619 21.9373 24.7619H21.69C21.4427 25 21.1953 25.4762 21.1953 25.7143C21.4427 26.1905 21.69 26.9048 21.69 27.381C21.9373 28.0952 22.1846 29.0476 22.1846 29.7619C22.1846 30.4762 21.69 31.1905 20.948 31.1905C20.7007 31.4286 19.9587 31.6667 19.7114 31.6667C19.2167 31.9048 18.7221 32.1429 18.2274 32.381C17.9801 32.381 17.2381 32.619 17.2381 32.619Z" fill="#1D4F78"/>
<path fill-rule="evenodd" clip-rule="evenodd" d="M29.6045 34.2858C29.6045 35.9524 29.6045 37.381 30.5938 38.5715C33.067 41.4286 38.2609 40.0001 38.2609 35.2382C38.2609 34.2858 38.2609 33.3334 38.0135 32.381C37.5189 31.4286 36.7769 30.7144 35.7876 30.2382C34.0563 29.2858 31.8304 29.762 30.8411 31.1905C30.0991 31.9048 29.6045 33.0953 29.6045 34.2858ZM31.0884 34.2858C31.0884 35.4763 31.0884 36.6667 31.8304 37.6191C32.3251 38.0953 33.067 38.5715 33.5617 38.5715C34.551 38.5715 35.0456 38.3334 35.7876 37.8572C36.5296 37.1429 36.7769 36.1905 36.7769 35.2382C36.7769 34.5239 36.7769 33.8096 36.5296 33.0953C36.2823 32.381 35.7876 31.9048 35.0456 31.4286C34.0563 30.9524 32.5724 31.1905 32.0777 31.9048C31.5831 32.6191 31.0884 33.5715 31.0884 34.2858ZM44.1966 45.0001C44.1966 45.7144 44.444 46.9048 44.9386 47.8572C45.4333 48.3334 45.9279 48.8096 46.6699 48.8096C47.1645 48.8096 47.6592 48.8096 48.1538 48.5715C49.3905 47.8572 49.8851 46.9048 49.8851 45.7144C49.8851 44.2858 49.8851 43.3334 48.8958 42.381C48.1538 41.1905 45.9279 41.1905 44.9386 42.381C44.444 43.0953 44.1966 44.0477 44.1966 45.0001ZM42.7127 45.0001C42.7127 46.4286 42.96 47.6191 43.702 48.5715C44.1966 49.5239 45.4333 50.2382 46.6699 50.2382C47.6592 50.2382 48.4012 50.2382 48.8958 49.762C50.6271 48.8096 51.3691 47.381 51.3691 45.7144C51.3691 43.8096 51.3691 42.6191 50.1324 41.4286C48.6485 39.5239 45.1859 39.2858 43.702 41.4286C43.2073 42.381 42.7127 43.5715 42.7127 45.0001Z" fill="#1D4F78"/>
<path fill-rule="evenodd" clip-rule="evenodd" d="M34.0562 50.2382H36.0347C36.2821 49.762 36.5294 49.5239 36.7767 49.0477C37.024 48.5715 37.2714 48.0953 37.5187 47.6191C38.508 45.4762 39.7446 43.3334 40.7339 41.1905C40.9812 40.9524 41.2286 40.4762 41.4759 40.0001C41.7232 39.762 41.7232 39.5239 41.9705 39.2858L45.6804 32.381C45.9277 31.9048 46.917 30.0001 46.917 29.762H44.9384L39.25 40.7143C39.0026 40.9524 39.0026 40.9524 38.7553 41.1905L36.7767 45.0001C36.5294 45.4762 36.2821 45.9524 36.0347 46.4286C35.5401 47.381 34.5508 49.2858 34.0562 50.2382Z" fill="#1D4F78"/>
</g>
<defs>
<clipPath id="clip0_802_768">
<rect width="51" height="50" fill="white" transform="translate(14.5 15)"/>
</clipPath>
</defs>
</svg>
