<svg width="80" height="80" viewBox="0 0 80 80" fill="none" xmlns="http://www.w3.org/2000/svg">
<rect width="80" height="80" rx="15" fill="white"/>
<g clip-path="url(#clip0_802_762)">
<path fill-rule="evenodd" clip-rule="evenodd" d="M20.3873 25.8333V46.6111C20.3873 48.3111 21.7671 49.4444 23.9353 49.4444C25.9064 49.4444 28.2717 49.8222 28.2717 48.5C28.2717 46.2333 22.3584 48.6889 22.3584 46.6111V25.6444C22.3584 25.4556 22.7526 25.0778 23.1469 25.0778H48.7713C49.3626 25.0778 49.7569 25.2667 49.7569 25.8333V47.5556H38.9157C37.7331 47.5556 37.536 49.4444 39.31 49.4444H52.3193C54.2904 49.4444 54.0933 47.5556 52.7135 47.5556H51.9251V30.5556H60.2038C60.2038 30.9333 61.1893 32.2556 61.3864 32.6333L65.1315 38.3C68.0882 42.6444 67.4969 40.7556 67.4969 46.2333C67.4969 48.8778 63.5546 46.2333 63.5546 48.3111C63.5546 49.6333 64.7373 49.4444 66.1171 49.4444C67.8911 49.4444 69.468 48.3111 69.468 46.8V41.3222C69.468 40.9444 69.2709 40.7556 69.0738 40.3778C68.6795 40 68.6795 40 68.4824 39.6222L61.3864 29.0444C61.1893 28.6667 60.7951 28.6667 60.4009 28.6667H51.9251C51.9251 26.5889 52.3193 23 48.7713 23H23.344C21.57 23 20.3873 24.3222 20.3873 25.8333ZM53.6991 52.2778C53.6991 57.1889 60.9922 58.7 63.1604 54.3556C65.5258 49.4444 59.0211 45.1 55.0789 48.8778C54.2904 49.6333 53.6991 50.7667 53.6991 52.2778ZM55.276 52.2778C55.276 55.4889 60.2038 56.4333 61.5835 53.6C62.372 51.9 61.5835 50.0111 59.8095 49.2556C58.6269 48.6889 57.2471 49.0667 56.2615 50.0111C55.6702 50.5778 55.276 51.3333 55.276 52.2778ZM28.0746 52.2778C28.0746 53.4111 28.8631 54.9222 29.6515 55.4889C32.8053 58.7 37.9302 56.0556 37.9302 52.4667V51.9C37.9302 48.3111 32.6082 45.8556 29.6515 48.8778C28.8631 49.6333 28.0746 50.9556 28.0746 52.2778ZM29.8486 52.2778C29.8486 52.8444 30.2429 53.9778 30.8342 54.3556C31.6226 55.3 32.6082 55.4889 33.7909 55.3C34.7764 55.1111 35.762 54.3556 36.1562 53.4111C36.3533 53.2222 36.3533 52.8444 36.3533 52.4667V51.9C36.3533 51.5222 36.3533 51.1444 36.1562 50.7667C35.5649 50.0111 34.5793 49.2556 33.5937 49.0667C32.6082 48.8778 31.6226 49.2556 30.8342 50.0111C30.2429 50.3889 29.8486 51.5222 29.8486 52.2778ZM34.9735 39.6222C34.7764 39.0556 33.0024 37.5444 32.4111 36.9778C31.8197 36.4111 31.8197 36.2222 31.0313 36.2222C30.6371 36.2222 30.44 36.6 30.2429 36.7889C30.0457 37.1667 30.0457 37.5444 30.44 37.7333L33.3966 40.5667C35.5649 42.6444 34.9735 42.4556 40.4926 37.1667C40.8869 36.6 41.8724 36.0333 41.8724 35.2778C41.8724 34.3333 41.2811 34.3333 40.6897 34.3333C40.0984 34.3333 35.9591 38.8667 34.9735 39.6222ZM10.5317 27.5333C10.5317 28.1 10.7288 28.6667 11.5173 28.6667H17.2335C18.8104 28.6667 18.8104 26.7778 17.2335 26.7778H11.5173C11.1231 26.7778 10.5317 27.1556 10.5317 27.5333ZM10.5317 35.2778C10.5317 35.8444 10.7288 36.2222 11.5173 36.2222H17.4306C18.6133 36.2222 19.2046 34.3333 16.8393 34.3333H12.1086C11.3202 34.3333 10.5317 34.5222 10.5317 35.2778ZM10.5317 42.6444C10.5317 43.4 10.7288 43.7778 11.5173 43.7778H17.6277C18.4162 43.7778 18.8104 41.8889 17.4306 41.8889H11.5173C10.926 41.8889 10.5317 42.2667 10.5317 42.6444Z" fill="#1D4F78"/>
</g>
<defs>
<clipPath id="clip0_802_762">
<rect width="59" height="34" fill="white" transform="translate(10.5 23)"/>
</clipPath>
</defs>
</svg>
