<svg width="80" height="80" viewBox="0 0 80 80" fill="none" xmlns="http://www.w3.org/2000/svg">
<rect width="80" height="80" rx="15" fill="white"/>
<g clip-path="url(#clip0_802_776)">
<path fill-rule="evenodd" clip-rule="evenodd" d="M22.3977 15.4148V17.7018H16.3359C15.1701 17.7018 14.0044 18.8453 14.0044 19.9888V31.8812C14.0044 33.0247 15.1701 34.1682 16.3359 34.1682H22.3977V44.0022H14.937C14.2375 44.0022 14.0044 44.4596 14.0044 44.917V60.926C14.0044 62.9843 16.3359 65.5 18.6673 65.5H58.3022C59.4679 65.5 59.2348 64.1278 59.2348 62.9843C59.2348 61.8408 59.2348 60.6973 59.2348 59.5538C59.4679 59.5538 59.7011 59.3251 60.1674 59.0964C61.1 58.4103 64.1309 57.0381 64.8303 56.5807C66.4623 55.4372 66.2292 52.2354 63.4314 52.2354C62.9651 52.2354 61.7994 52.6928 61.3331 52.9215C60.8668 53.1502 60.6337 53.1502 60.1674 53.3789C59.9342 53.3789 59.4679 53.6076 59.2348 53.6076C59.2348 52.4641 59.2348 51.3206 59.2348 50.1771C59.2348 49.491 59.0016 49.0336 59.4679 48.8049C59.7011 48.5762 59.7011 48.5762 59.9342 48.3475C63.4314 45.1457 63.4314 39.8857 60.1674 36.4552C59.0016 35.5404 59.2348 36.6839 59.2348 33.4821V15.6435C59.2348 14.9574 59.0016 14.5 58.3022 14.5H23.0971C22.6308 14.5 22.3977 14.7287 22.3977 15.4148ZM42.2151 50.4058H42.9145V58.8677H42.2151V50.4058ZM27.0606 55.6659H36.3864V57.4955H21.2319V59.0964H36.3864C36.3864 60.0112 37.0859 60.6973 38.0185 60.6973H40.8162C41.5157 60.6973 42.2151 60.2399 42.4483 59.5538H42.6814L44.0803 59.7825C45.7123 60.0112 47.3443 60.6973 49.2095 61.3834C51.7741 62.2982 53.6393 62.7556 56.2039 61.1547L57.6028 60.4686V62.9843C57.6028 63.213 57.6028 63.4417 57.6028 63.8991H18.6673C17.2684 63.8991 15.6364 62.2982 15.6364 60.926V45.6031H24.0297V34.1682H37.5522C38.9511 34.1682 39.8836 33.2534 39.8836 31.8812V20.2175C39.8836 18.8453 38.9511 17.7018 37.5522 17.7018H24.0297V16.1009H57.6028V33.4821C57.6028 33.9395 57.6028 34.3969 57.6028 34.8543C56.2039 34.3969 54.805 34.1682 53.173 34.3969C48.7432 34.8543 45.4792 38.9709 46.1786 43.5448C46.6449 47.8901 50.8415 51.0919 55.2713 50.4058C56.2039 50.4058 56.9033 50.1771 57.6028 49.9484V50.1771C57.6028 51.3206 57.6028 52.4641 57.6028 53.6076C57.6028 52.9215 57.1365 52.2354 56.437 51.778C55.5045 51.0919 54.1056 51.3206 52.9398 51.3206C52.7067 51.3206 52.0073 51.3206 51.541 51.0919C51.3078 51.0919 51.0747 51.0919 50.8415 50.8632C50.3752 50.8632 49.6758 50.6345 49.2095 50.4058C47.5775 49.9484 45.9455 49.7197 44.3134 49.7197H42.4483C42.2151 49.491 42.2151 49.2623 41.982 49.2623C41.7488 48.8049 41.2825 48.8049 40.8162 48.8049H38.0185C37.0859 48.8049 36.3864 49.491 36.3864 50.1771V54.065H27.0606V55.6659ZM53.4061 35.9978C49.9089 36.4552 47.1112 39.6569 47.5775 43.3161C48.0438 46.7466 51.541 49.491 55.2713 48.8049C58.7685 48.3475 61.3331 45.1457 60.8668 41.4865C60.4005 38.0561 57.1365 35.3117 53.4061 35.9978ZM44.0803 57.9529C46.1786 58.1816 48.0438 59.0964 49.6758 59.7825C52.0073 60.4686 53.173 60.926 55.5045 59.7825L62.4988 55.8946C63.4314 55.4372 64.5972 54.9798 64.1309 54.065C63.6646 53.6076 62.2657 54.2937 61.1 54.7511C55.7376 56.8094 56.437 56.352 49.9089 56.352V54.7511C51.0747 54.7511 54.1056 54.9798 55.0382 54.7511C55.7376 54.5224 55.9707 53.6076 55.5045 53.1502C55.0382 52.9215 53.6393 53.1502 52.9398 53.1502C50.6084 53.1502 51.3078 52.9215 48.7432 52.2354C47.3443 51.778 45.7123 51.5493 44.0803 51.5493C44.0803 52.6928 44.0803 57.2668 44.0803 57.9529ZM19.3668 25.0202C18.201 25.7063 17.2684 26.8498 17.2684 28.9081C17.2684 31.4238 17.2684 30.9664 21.4651 30.9664C25.6617 30.9664 25.6617 31.1951 25.6617 28.9081C25.6617 27.9933 25.6617 27.3072 25.1954 26.3924C24.496 25.4776 24.0297 25.4776 23.5634 24.7915C25.4286 21.5897 20.7656 19.7601 19.3668 22.2758C18.6673 23.4193 19.1336 23.8767 19.3668 25.0202ZM18.9005 29.3655C19.1336 29.3655 19.1336 29.3655 19.3668 29.3655C20.0662 29.3655 20.7656 29.3655 21.4651 29.3655C22.3977 29.3655 23.0971 29.3655 23.7965 29.3655H24.0297C24.0297 29.1368 24.0297 29.1368 24.0297 28.9081C24.0297 28.4507 24.0297 27.7646 23.7965 27.3072C23.3303 26.6211 22.864 26.3924 22.3977 25.935L21.6982 25.0202L22.1645 24.1054C22.3977 23.648 22.6308 23.1906 22.1645 22.9619C21.6982 22.5045 20.9988 22.5045 20.7656 22.9619C20.7656 23.1906 20.5325 23.4193 20.5325 23.4193C20.7656 23.648 20.7656 24.1054 20.9988 24.5628L21.2319 25.7063L20.2993 26.3924C19.1336 26.8498 18.9005 27.7646 18.9005 28.9081C18.9005 29.1368 18.9005 29.1368 18.9005 29.3655ZM27.9932 21.1323C27.0606 21.5897 27.2937 22.9619 27.2937 23.8767C27.2937 25.2489 27.0606 25.935 28.6926 25.935C36.6196 25.935 35.687 26.6211 35.687 23.1906C35.687 21.8184 35.9202 21.1323 34.5213 21.1323C33.5887 21.1323 28.4595 20.9036 27.9932 21.1323ZM28.9258 22.7332C28.9258 22.9619 28.9258 23.648 28.9258 23.8767C28.9258 24.1054 28.9258 24.3341 28.9258 24.3341C30.3246 24.3341 31.7235 24.5628 33.1224 24.5628C33.3555 24.5628 33.8218 24.5628 34.2881 24.5628V24.3341C34.2881 23.8767 34.055 23.648 34.055 23.1906C34.055 22.9619 34.2881 22.7332 34.2881 22.7332C33.1224 22.7332 32.1898 22.5045 31.2572 22.5045C30.5578 22.5045 30.0915 22.5045 29.3921 22.5045C29.1589 22.5045 29.1589 22.5045 28.9258 22.7332ZM38.0185 59.0964H40.8162V50.1771H38.0185V59.0964ZM25.6617 40.8004H43.3808V39.1996H25.6617V40.8004ZM53.4061 38.0561C53.4061 38.9709 52.0073 38.5135 51.7741 40.1143C51.541 41.2578 52.0073 42.4013 52.7067 42.63C53.4061 43.3161 54.805 43.0874 55.0382 43.7735C55.0382 44.4596 54.3387 45.8318 53.173 44.0022H51.7741C51.7741 46.2892 53.4061 45.8318 53.4061 46.7466V47.4327H55.0382V46.5179C55.2713 46.0605 56.2039 46.0605 56.6702 44.6883C56.9033 43.5448 56.2039 42.63 55.7376 42.1726C54.805 41.4865 53.6393 41.7152 53.4061 41.0291C53.173 40.1143 54.1056 39.6569 54.805 40.1143C54.805 40.3431 54.805 40.3431 54.805 40.3431L55.0382 40.8004H56.6702C56.437 38.5135 55.0382 38.9709 55.0382 38.0561V37.37H53.4061V38.0561ZM43.8471 24.5628H55.7376V22.9619H43.8471V24.5628ZM28.2263 30.9664H35.687V29.3655H28.2263V30.9664ZM16.3359 19.3027H37.5522C38.0185 19.3027 38.4848 19.7601 38.4848 20.2175V31.8812C38.4848 32.3386 38.0185 32.5673 37.5522 32.5673H16.3359C15.8696 32.5673 15.6364 32.3386 15.6364 31.8812V20.2175C15.6364 19.7601 15.8696 19.3027 16.3359 19.3027Z" fill="#1D4F78"/>
</g>
<defs>
<clipPath id="clip0_802_776">
<rect width="52" height="51" fill="white" transform="translate(14 14.5)"/>
</clipPath>
</defs>
</svg>
