<svg width="80" height="80" viewBox="0 0 80 80" fill="none" xmlns="http://www.w3.org/2000/svg">
<rect width="80" height="80" rx="15" fill="#284B78"/>
<g clip-path="url(#clip0_595_318)">
<path fill-rule="evenodd" clip-rule="evenodd" d="M31.9846 44.4679C33.0533 46.0449 33.8549 47.359 34.6564 48.9359C34.9236 49.4615 35.9923 51.3013 36.2595 51.5641C36.7938 51.8269 37.3282 52.0897 38.1297 51.8269C39.7328 51.3013 42.1374 48.1474 42.9389 46.5705C46.1451 41.0513 54.1604 30.8013 58.4353 25.8077C58.9696 25.2821 60.5727 23.4423 61.1071 22.9167C61.3743 22.1282 62.1758 21.3397 62.443 20.5513C61.1071 21.6026 59.504 22.9167 58.7025 23.7051C55.2292 27.1218 48.0153 34.7436 45.0764 38.1603C42.9389 40.2628 41.3359 42.891 39.1985 44.9936L37.8626 46.0449L36.7938 44.7308C35.458 43.1538 34.6564 41.5769 33.8549 40.2628C33.3205 39.7372 32.2518 38.1603 31.7175 37.8974C31.1831 37.3718 29.58 37.8974 29.0457 37.8974C28.7785 38.1603 27.7098 38.4231 27.1754 38.6859C27.4426 38.9487 28.7785 40.5256 29.0457 41.0513C30.3816 42.1026 30.9159 43.1538 31.9846 44.4679ZM38.3969 19.5C43.7405 19.5 48.5497 21.3397 52.2902 24.7564C51.7558 25.0192 51.2215 25.5449 50.6871 26.0705C47.481 23.4423 42.9389 21.6026 38.3969 21.6026C27.977 21.6026 19.6944 29.75 19.6944 40C19.6944 49.9872 27.977 58.3974 38.3969 58.3974C48.5497 58.3974 57.0994 49.9872 57.0994 40C57.0994 38.1603 56.8322 36.3205 56.2979 34.7436C56.8322 33.9551 57.3666 33.4295 57.9009 32.641C58.7025 35.0064 59.2368 37.3718 59.2368 40C59.2368 51.3013 49.8856 60.5 38.3969 60.5C26.9082 60.5 17.557 51.3013 17.557 40C17.557 28.6987 26.9082 19.5 38.3969 19.5Z" fill="#F9BC2D"/>
</g>
<defs>
<clipPath id="clip0_595_318">
<rect width="45" height="41" fill="white" transform="translate(17.5 19.5)"/>
</clipPath>
</defs>
</svg>
