<svg width="80" height="80" viewBox="0 0 80 80" fill="none" xmlns="http://www.w3.org/2000/svg">
<rect width="80" height="80" rx="15" fill="#284B78"/>
<g clip-path="url(#clip0_595_325)">
<path fill-rule="evenodd" clip-rule="evenodd" d="M20.3874 25.8333V46.6111C20.3874 48.3111 21.7672 49.4444 23.9354 49.4444C25.9065 49.4444 28.2719 49.8222 28.2719 48.5C28.2719 46.2333 22.3585 48.6889 22.3585 46.6111V25.6444C22.3585 25.4556 22.7528 25.0778 23.147 25.0778H48.7714C49.3628 25.0778 49.757 25.2667 49.757 25.8333V47.5556H38.9159C37.7332 47.5556 37.5361 49.4444 39.3101 49.4444H52.3194C54.2906 49.4444 54.0934 47.5556 52.7137 47.5556H51.9252V30.5556H60.2039C60.2039 30.9333 61.1894 32.2556 61.3866 32.6333L65.1317 38.3C68.0883 42.6444 67.497 40.7556 67.497 46.2333C67.497 48.8778 63.5548 46.2333 63.5548 48.3111C63.5548 49.6333 64.7374 49.4444 66.1172 49.4444C67.8912 49.4444 69.4681 48.3111 69.4681 46.8V41.3222C69.4681 40.9444 69.271 40.7556 69.0739 40.3778C68.6797 40 68.6797 40 68.4826 39.6222L61.3866 29.0444C61.1894 28.6667 60.7952 28.6667 60.401 28.6667H51.9252C51.9252 26.5889 52.3194 23 48.7714 23H23.3441C21.5701 23 20.3874 24.3222 20.3874 25.8333ZM53.6992 52.2778C53.6992 57.1889 60.9923 58.7 63.1606 54.3556C65.5259 49.4444 59.0212 45.1 55.079 48.8778C54.2906 49.6333 53.6992 50.7667 53.6992 52.2778ZM55.2761 52.2778C55.2761 55.4889 60.2039 56.4333 61.5837 53.6C62.3721 51.9 61.5837 50.0111 59.8097 49.2556C58.627 48.6889 57.2472 49.0667 56.2617 50.0111C55.6703 50.5778 55.2761 51.3333 55.2761 52.2778ZM28.0748 52.2778C28.0748 53.4111 28.8632 54.9222 29.6517 55.4889C32.8054 58.7 37.9303 56.0556 37.9303 52.4667V51.9C37.9303 48.3111 32.6083 45.8556 29.6517 48.8778C28.8632 49.6333 28.0748 50.9556 28.0748 52.2778ZM29.8488 52.2778C29.8488 52.8444 30.243 53.9778 30.8343 54.3556C31.6228 55.3 32.6083 55.4889 33.791 55.3C34.7765 55.1111 35.7621 54.3556 36.1563 53.4111C36.3534 53.2222 36.3534 52.8444 36.3534 52.4667V51.9C36.3534 51.5222 36.3534 51.1444 36.1563 50.7667C35.565 50.0111 34.5794 49.2556 33.5939 49.0667C32.6083 48.8778 31.6228 49.2556 30.8343 50.0111C30.243 50.3889 29.8488 51.5222 29.8488 52.2778ZM34.9737 39.6222C34.7765 39.0556 33.0025 37.5444 32.4112 36.9778C31.8199 36.4111 31.8199 36.2222 31.0314 36.2222C30.6372 36.2222 30.4401 36.6 30.243 36.7889C30.0459 37.1667 30.0459 37.5444 30.4401 37.7333L33.3968 40.5667C35.565 42.6444 34.9737 42.4556 40.4928 37.1667C40.887 36.6 41.8725 36.0333 41.8725 35.2778C41.8725 34.3333 41.2812 34.3333 40.6899 34.3333C40.0985 34.3333 35.9592 38.8667 34.9737 39.6222ZM10.5319 27.5333C10.5319 28.1 10.729 28.6667 11.5174 28.6667H17.2337C18.8105 28.6667 18.8105 26.7778 17.2337 26.7778H11.5174C11.1232 26.7778 10.5319 27.1556 10.5319 27.5333ZM10.5319 35.2778C10.5319 35.8444 10.729 36.2222 11.5174 36.2222H17.4308C18.6134 36.2222 19.2048 34.3333 16.8394 34.3333H12.1088C11.3203 34.3333 10.5319 34.5222 10.5319 35.2778ZM10.5319 42.6444C10.5319 43.4 10.729 43.7778 11.5174 43.7778H17.6279C18.4163 43.7778 18.8105 41.8889 17.4308 41.8889H11.5174C10.9261 41.8889 10.5319 42.2667 10.5319 42.6444Z" fill="#F9BC2D"/>
</g>
<defs>
<clipPath id="clip0_595_325">
<rect width="59" height="34" fill="white" transform="translate(10.5 23)"/>
</clipPath>
</defs>
</svg>
