<svg width="25" height="25" viewBox="0 0 25 25" fill="none" xmlns="http://www.w3.org/2000/svg">
<rect width="25" height="25" rx="2" fill="#1D4F78"/>
<g clip-path="url(#clip0_637_1021)">
<path d="M19.552 7.05477C18.6981 6.15773 17.5703 5.6142 16.372 5.52223C15.1738 5.43027 13.9841 5.79593 13.0175 6.55325C11.9986 5.74881 10.7304 5.38404 9.46834 5.53239C8.20624 5.68075 7.04396 6.3312 6.21557 7.35277C5.38718 8.37435 4.95421 9.69115 5.00384 11.038C5.05347 12.3849 5.58202 13.6618 6.48306 14.6115L11.2878 19.7542C11.7382 20.2318 12.3488 20.5 12.9855 20.5C13.6221 20.5 14.2327 20.2318 14.6832 19.7542L19.4879 14.6115C19.9611 14.1208 20.3383 13.5356 20.5977 12.8896C20.8572 12.2436 20.9938 11.5495 20.9998 10.8473C21.0058 10.1451 20.8809 9.4485 20.6324 8.79765C20.384 8.1468 20.0168 7.55449 19.552 7.05477ZM18.4228 13.396L13.6181 18.4962C13.5437 18.5758 13.4551 18.6391 13.3575 18.6822C13.2599 18.7254 13.1553 18.7476 13.0495 18.7476C12.9438 18.7476 12.8392 18.7254 12.7416 18.6822C12.644 18.6391 12.5554 18.5758 12.481 18.4962L7.67624 13.396C7.04822 12.7146 6.69656 11.7992 6.69656 10.8459C6.69656 9.89262 7.04822 8.97724 7.67624 8.29581C8.31619 7.62513 9.1793 7.24906 10.0786 7.24906C10.9779 7.24906 11.841 7.62513 12.481 8.29581C12.5554 8.37548 12.644 8.43872 12.7416 8.48187C12.8392 8.52503 12.9438 8.54725 13.0495 8.54725C13.1553 8.54725 13.2599 8.52503 13.3575 8.48187C13.4551 8.43872 13.5437 8.37548 13.6181 8.29581C14.2754 7.74064 15.1021 7.4617 15.9407 7.51216C16.7794 7.56263 17.5711 7.93898 18.1651 8.56944C18.759 9.1999 19.1136 10.0404 19.1611 10.9305C19.2086 11.8207 18.9458 12.6983 18.4228 13.396Z" fill="#E9E9E9"/>
</g>
<defs>
<clipPath id="clip0_637_1021">
<rect width="16" height="15" fill="white" transform="translate(5 5.5)"/>
</clipPath>
</defs>
</svg>
