<svg width="54" height="70" viewBox="0 0 54 70" fill="none" xmlns="http://www.w3.org/2000/svg">
<g clip-path="url(#clip0_403_335)">
<path fill-rule="evenodd" clip-rule="evenodd" d="M12.8407 6.36364C13.4307 4.82094 15.0039 3.85675 16.5771 3.85675H18.1504C18.937 1.5427 21.1002 0 23.46 0C26.0166 0 28.1798 1.5427 28.9664 3.85675H30.5396C32.1129 3.85675 33.6861 4.82094 34.2761 6.36364H41.7489C44.6987 6.36364 47.0586 8.67769 47.0586 11.5702V45.3168C51.1883 47.6309 53.9415 51.8733 53.9415 56.8871C53.9415 64.022 48.0419 70 40.7657 70C35.2593 70 30.7363 66.9146 28.5731 62.4793H5.36783C2.41801 62.4793 0.0581551 59.9725 0.0581551 57.0799V11.5702C0.0581551 8.67769 2.41801 6.36364 5.36783 6.36364H12.8407ZM40.7657 45.5096C47.0586 45.5096 52.1716 50.7163 52.1716 56.8871C52.1716 63.0578 47.0586 68.0716 40.7657 68.0716C34.2761 68.0716 29.163 63.0578 29.163 56.8871C29.163 50.7163 34.2761 45.5096 40.7657 45.5096ZM40.7657 43.7741C42.3389 43.7741 43.7155 43.9669 45.2887 44.5455V11.5702C45.2887 9.64187 43.7155 8.09917 41.7489 8.09917H32.7028C32.7028 8.09917 32.7028 7.90634 32.7028 7.7135C32.7028 6.55647 31.7195 5.59229 30.5396 5.59229H27.3931C27.3931 3.47107 25.6232 1.73554 23.46 1.73554C21.4935 1.73554 19.7236 3.47107 19.7236 5.59229H16.5771C15.3972 5.59229 14.4139 6.55647 14.4139 7.7135C14.4139 7.90634 14.4139 8.09917 14.4139 8.09917H5.36783C3.40128 8.09917 1.82805 9.64187 1.82805 11.5702V57.0799C1.82805 59.0083 3.40128 60.551 5.36783 60.551H27.9831C27.5898 59.3939 27.3931 58.2369 27.3931 56.8871C27.3931 49.5592 33.2928 43.7741 40.7657 43.7741Z" fill="#FFB629"/>
<path fill-rule="evenodd" clip-rule="evenodd" d="M36.0461 29.5042C35.6528 29.5042 34.0796 29.3113 33.6863 29.5042C32.8996 30.4683 33.2929 31.6254 34.6695 31.6254C34.8662 31.6254 35.8495 31.6254 36.0461 31.4325C36.6361 31.0469 36.6361 31.0469 36.6361 30.4683C36.6361 30.0827 36.4394 29.697 36.2428 29.5042H36.0461Z" fill="#FFB629"/>
<path fill-rule="evenodd" clip-rule="evenodd" d="M11.4643 33.9394C10.481 34.1323 10.481 34.5179 10.2844 35.4821C11.2676 36.2535 10.8743 36.0606 12.2509 36.0606C13.0375 36.0606 13.8241 36.0606 13.8241 34.9036C13.8241 33.9394 12.6442 33.7466 11.6609 33.7466L11.4643 33.9394Z" fill="#FFB629"/>
<path fill-rule="evenodd" clip-rule="evenodd" d="M12.0543 24.876L11.071 25.0688C9.89105 25.8402 10.2844 27.19 12.0543 27.19C12.6442 27.19 15.0041 27.19 15.3974 26.9972C16.184 26.6115 16.184 26.2258 15.9873 25.4545V25.2617C15.9873 25.2617 15.2007 25.0688 15.0041 25.0688C14.2175 24.876 12.8409 24.876 12.0543 24.876Z" fill="#FFB629"/>
<path fill-rule="evenodd" clip-rule="evenodd" d="M31.3264 17.741C31.9164 18.3195 32.8996 18.1267 33.6863 18.1267C34.0796 18.1267 35.8495 18.3195 36.0461 18.1267C36.2428 17.9338 36.8327 17.3553 36.6361 17.1625C36.4394 15.8126 35.8495 16.0055 34.4729 16.0055C33.8829 16.0055 31.7197 15.8126 31.3264 16.3911C30.7364 16.9697 30.9331 17.1625 31.3264 17.741Z" fill="#FFB629"/>
<path fill-rule="evenodd" clip-rule="evenodd" d="M36.4394 25.4545C36.0461 24.876 35.2595 24.876 34.4729 24.876C33.2929 24.876 32.3097 24.876 31.1297 25.0688C30.9331 25.0688 30.3431 25.0688 30.3431 25.0688C29.9498 25.4545 29.9498 25.2617 29.9498 25.8402C29.7532 26.2258 29.9498 26.6115 30.1465 26.8044C30.9331 27.3829 32.5063 27.19 33.4896 27.19C34.0796 27.19 35.8495 27.19 36.2428 26.8044C36.4394 26.8044 36.6361 26.2258 36.6361 26.033C36.6361 25.8402 36.6361 25.6473 36.4394 25.4545Z" fill="#FFB629"/>
<path fill-rule="evenodd" clip-rule="evenodd" d="M16.184 35.4821C16.774 36.4463 18.1505 36.0606 19.1338 36.0606C19.3305 36.0606 22.2803 36.2535 22.2803 36.0606C22.4769 36.0606 22.8703 35.4821 22.8703 35.2893C23.0669 34.5179 22.4769 33.9394 21.6903 33.9394C21.297 33.7466 19.9204 33.7466 19.3305 33.7466C18.9372 33.7466 17.1673 33.7466 16.774 33.9394C16.184 34.5179 15.9873 34.7108 16.184 35.4821Z" fill="#FFB629"/>
<path fill-rule="evenodd" clip-rule="evenodd" d="M28.5732 29.3113C27.9833 29.3113 25.0335 29.3113 24.6401 29.5041C24.4435 29.697 24.4435 29.697 24.2468 29.8898C24.2468 32.2038 24.8368 31.6253 26.8033 31.6253C27.59 31.6253 29.9498 31.8182 30.3431 31.4325C30.9331 31.2397 30.9331 31.0468 30.9331 30.4683C30.7364 29.1184 29.5565 29.3113 28.5732 29.3113Z" fill="#FFB629"/>
<path fill-rule="evenodd" clip-rule="evenodd" d="M27.3933 25.4545C26.6067 24.876 26.2134 24.876 25.2301 24.876C24.4435 24.876 19.5271 24.876 19.1338 25.0688C18.9372 25.0688 18.7405 25.2617 18.5439 25.2617C18.3472 27.3829 18.9372 27.19 20.9037 27.19C22.6736 27.19 24.2468 27.19 25.8201 27.19C27 27.19 27.59 26.8044 27.3933 25.6473V25.4545Z" fill="#FFB629"/>
<path fill-rule="evenodd" clip-rule="evenodd" d="M20.5104 21.2121C20.3137 20.248 19.3305 20.4408 18.5439 20.4408C17.7572 20.4408 11.4643 20.4408 11.071 20.4408C11.071 20.6336 10.6777 21.0193 10.2844 21.0193C10.6777 22.7548 10.6777 22.7548 12.6442 22.7548C15.0041 22.7548 17.5606 22.562 20.1171 22.562C20.5104 21.9835 20.7071 21.7907 20.5104 21.2121Z" fill="#FFB629"/>
<path fill-rule="evenodd" clip-rule="evenodd" d="M26.6067 36.0607C28.1799 36.2535 29.9498 36.0607 31.7197 36.0607C32.3097 36.0607 35.6528 36.2535 36.0461 36.0607C36.6361 35.675 36.8327 34.9037 36.4394 34.3251C36.0461 33.7466 36.2428 33.9395 35.4561 33.9395C32.5063 33.9395 29.5565 33.7466 26.8033 33.9395C26.0167 33.9395 25.4268 33.9395 25.2301 34.9037C25.2301 35.675 25.8201 36.0607 26.6067 36.0607Z" fill="#FFB629"/>
<path fill-rule="evenodd" clip-rule="evenodd" d="M21.6903 29.8898C21.297 29.3113 19.9204 29.3113 19.1338 29.3113C17.1673 29.3113 15.2007 29.3113 13.4308 29.3113C12.8409 29.3113 11.6609 29.3113 11.2676 29.5041C10.2844 29.8898 10.0877 30.4683 10.6777 31.2397C11.071 31.6253 11.071 31.4325 11.071 31.6253C11.071 31.8182 11.6609 31.6253 11.8576 31.6253C14.6108 31.4325 17.5606 31.8182 20.3137 31.6253C21.1004 31.6253 21.887 31.4325 21.6903 30.4683C21.6903 30.2755 21.6903 30.0826 21.6903 29.8898Z" fill="#FFB629"/>
<path fill-rule="evenodd" clip-rule="evenodd" d="M36.0461 22.562C36.2428 22.3692 36.4394 21.9835 36.8327 21.7907C36.4394 20.248 36.0461 20.4408 34.6695 20.4408C31.3264 20.4408 27.9833 20.4408 24.6401 20.4408C23.6569 20.4408 23.0669 20.4408 23.0669 21.5978C23.0669 22.7549 24.0502 22.7549 25.0335 22.7549C27.9833 22.562 30.9331 22.7549 33.8829 22.7549C34.6695 22.7549 35.2595 22.7549 36.0461 22.562Z" fill="#FFB629"/>
<path fill-rule="evenodd" clip-rule="evenodd" d="M11.4643 18.1268C12.8409 18.3196 14.8074 18.1268 16.3806 18.3196C17.9539 18.3196 27.59 18.5125 28.1799 17.934C28.7699 17.5483 28.7699 17.1626 28.5732 16.5841C27.9833 15.6199 25.8201 16.0056 24.8368 16.0056C22.8702 16.0056 11.2676 15.6199 10.6777 16.3913C10.0877 16.7769 10.481 17.934 11.4643 18.1268Z" fill="#FFB629"/>
<path fill-rule="evenodd" clip-rule="evenodd" d="M39.1926 60.1652C38.7993 60.1652 37.816 58.4296 37.4227 58.044C37.0294 57.8511 37.226 57.6583 36.4394 57.0798C36.0461 56.8869 35.2595 56.8869 35.0628 57.2726C34.6695 57.8511 34.8662 58.4296 35.0628 59.0082C35.2595 59.0082 35.4561 59.201 35.6528 59.5867C36.2428 60.358 36.8327 61.1294 37.4227 61.9007C38.0127 62.6721 38.9959 64.2148 39.9792 63.2506C40.5692 62.8649 41.5524 60.9365 42.1424 60.358C42.5357 59.5867 42.929 59.0082 43.3223 58.4296C44.1089 57.2726 44.6989 56.3084 45.4855 55.1514C45.8788 54.5729 46.2721 54.1872 46.4688 53.8015C47.0588 53.0302 47.2554 53.223 47.2554 52.2588C47.0588 50.909 45.6822 50.909 44.8956 52.066C44.5023 52.6445 43.9123 53.4159 43.3223 54.1872C42.7324 55.1514 39.7825 59.7795 39.1926 60.1652Z" fill="#FFB629"/>
</g>
<defs>
<clipPath id="clip0_403_335">
<rect width="54" height="70" fill="white"/>
</clipPath>
</defs>
</svg>
