<svg width="64" height="66" viewBox="0 0 64 66" fill="none" xmlns="http://www.w3.org/2000/svg">
<path fill-rule="evenodd" clip-rule="evenodd" d="M8.85131 6.78665V7.97431V11.0283V12.3856V14.0823V15.4396V16.9666V18.3239V20.6992V22.5655V24.6015C6.1279 24.7712 5.95769 25.6195 5.27684 27.9948C5.10662 28.5038 4.7662 29.0128 4.7662 29.6915C4.59599 29.8611 4.42577 30.3701 4.42577 30.7095C4.08535 31.2184 3.74492 32.2364 3.74492 32.7454C3.4045 33.2544 3.06407 34.6118 3.06407 35.1208C2.72365 35.4601 2.21301 37.1567 2.21301 37.8354C1.87258 38.1747 1.53216 39.3624 1.53216 39.8714C1.02152 40.2107 0.681093 41.568 0.681093 42.077C0.51088 42.4164 0.340667 42.9254 0.340667 43.2647C0.000241867 43.7737 -0.169971 44.7917 0.170455 45.3007C0.340667 45.8097 0.340667 45.9793 0.681093 46.3187C0.851306 46.4883 0.851306 46.658 1.02152 46.8277C1.53216 47.167 1.02152 46.8277 1.53216 46.9973C1.87258 47.3367 2.89386 47.5063 3.4045 47.8456C4.25556 48.0153 4.93641 48.185 5.61726 48.5243C6.80875 48.8636 8.85131 49.712 10.213 49.5423C10.3832 50.221 10.8939 50.73 11.4045 51.239C11.2343 51.4086 11.0641 51.5783 10.8939 51.9176C10.7236 52.0873 10.5534 52.4266 10.3832 52.5963C10.213 52.7659 10.213 52.7659 10.213 52.9356C10.0428 53.1053 10.0428 52.9356 10.0428 53.2749C9.36194 53.6143 9.02152 54.4626 9.02152 55.4806V56.8379C9.19173 57.6862 9.53216 58.1952 10.213 58.5346C10.3832 58.7042 10.213 58.7042 10.3832 58.8739C10.7236 59.2132 11.4045 59.3829 11.9151 59.5526L12.596 59.7222C12.596 60.0615 12.4258 60.0615 12.7662 60.2312V60.9099C13.1066 62.0975 13.9577 63.1155 15.1492 63.4548C16.8513 63.9638 17.7024 63.2852 18.7236 62.7762C19.0641 63.1155 19.0641 63.4548 19.5747 63.6245C20.0853 64.4728 20.9364 64.9818 22.2981 64.9818C23.6598 64.9818 24.1705 64.4728 24.8513 63.9638C25.5322 65.1515 26.0428 64.9818 27.2343 65.4908H28.2556C29.447 64.9818 29.9577 64.9818 30.6385 63.7942H30.8088C31.1492 64.1335 33.3619 65.3212 34.213 65.4908C35.9151 65.6605 37.1066 64.8122 37.6173 63.7942C38.1279 63.4548 38.2981 62.6065 38.2981 61.9279C39.4896 61.9279 40.6811 61.7582 41.3619 60.9099C41.8726 60.7402 42.213 60.2312 42.5534 59.5526C42.8939 59.2132 42.8939 58.1952 42.8939 57.5166C44.2556 57.5166 45.2768 57.6862 46.1279 56.8379L46.6385 56.3289C46.979 55.9896 47.3194 55.6502 47.4896 54.9716L47.83 53.4446C49.5322 53.6143 51.4045 53.1053 51.9151 51.9176C52.2556 51.7479 52.596 51.0693 52.596 50.3906L52.7662 49.0333C55.1492 50.221 56.1705 49.0333 58.3832 48.5243C59.4045 48.185 62.1279 47.5063 62.6385 46.9973C62.979 46.8277 62.6385 46.9973 63.1492 46.658C63.1492 46.658 63.3194 46.4883 63.4896 46.3187C63.83 45.9793 63.83 45.8097 64.0002 45.3007V44.113C64.0002 43.7737 63.83 43.4343 63.83 43.095C63.6598 42.9254 63.6598 42.7557 63.6598 42.586C63.4896 42.2467 63.6598 42.4164 63.3194 42.2467C63.3194 41.568 62.979 40.2107 62.6385 39.8714C62.6385 39.3624 62.2981 38.1747 61.9577 37.8354C61.9577 37.1567 61.447 35.4601 61.1066 35.1208C61.1066 34.6118 60.7662 33.9331 60.596 33.5938L60.0853 32.0668C60.0853 31.5578 59.5747 30.0308 59.2343 29.6915C59.2343 29.1825 59.0641 28.5038 58.8939 27.9948C58.213 25.7892 57.7024 24.7712 55.1492 24.6015L55.3194 22.5655V20.6992V18.3239V16.9666V14.9306V13.4036C55.3194 12.8946 55.3194 12.5553 55.3194 12.0463C55.3194 11.8766 55.3194 11.5373 55.1492 11.3676C54.979 10.8586 55.1492 11.0283 54.8088 10.8586C54.6385 10.5193 52.7662 8.65297 52.4258 8.4833L52.0854 7.97431C51.7449 7.63497 50.8939 6.95631 50.5534 6.78665L48.0002 4.24167C47.83 3.90234 48.0002 4.072 47.6598 3.73267C47.4896 3.56301 47.4896 3.56301 47.3194 3.39334C46.979 3.05401 46.8088 2.71468 46.2981 2.54502C46.1279 2.20569 45.7875 1.86636 45.4471 1.52702C45.1066 1.18769 44.7662 0.848364 44.2556 0.509033H9.53216C8.68109 1.35736 8.85131 1.18769 8.85131 2.71468V4.41133V5.76866V6.78665ZM51.2343 10.18C51.0641 10.3496 51.7449 10.3496 50.0428 10.3496H45.4471V4.581C46.2981 5.09 47.3194 6.44732 48.0002 6.78665C48.3407 7.29564 49.3619 8.31364 49.8726 8.4833C50.0428 8.9923 50.8939 9.84062 51.2343 10.18ZM6.80875 29.5218L7.31939 27.9948C8.00024 26.4678 7.83003 26.2982 9.70237 26.9768C10.3832 27.1465 12.4258 27.9948 12.9364 27.9948C13.9577 28.6735 15.83 28.3341 16.0002 29.6915L15.83 30.7095C15.6598 30.8791 15.6598 30.7095 15.6598 31.0488L14.979 33.0848C14.6385 33.5938 14.2981 34.4421 14.2981 35.1208C14.2981 35.2904 14.2981 34.9511 14.1279 35.2904V35.6297C13.9577 35.9691 13.9577 35.9691 13.9577 36.1387C13.7875 36.4781 13.7875 36.6477 13.6173 37.1567C13.4471 37.4961 13.4471 37.8354 13.2768 38.1747C13.1066 38.6837 12.7662 39.1927 12.7662 39.7017L12.0853 42.077C11.7449 42.4164 11.5747 43.095 11.4045 43.604C11.2343 44.113 11.0641 44.7917 11.0641 45.3007C10.7236 45.64 10.5534 46.3187 10.5534 46.8277C10.0428 47.3367 10.213 47.676 9.02152 47.5063C8.34067 47.3367 7.83003 46.9973 7.14918 46.8277C6.80875 46.658 2.89386 45.4703 2.21301 45.3007C2.04279 44.4523 2.04279 44.4523 2.38322 43.4343L2.72365 42.2467L3.4045 39.8714L4.08535 38.1747L5.10662 35.1208L5.78748 33.0848L6.46833 30.7095L6.80875 29.5218ZM48.3407 30.7095C48.3407 30.2005 48.1705 30.2005 48.1705 29.6915C48.1705 28.1645 49.8726 28.8431 50.7236 27.9948C51.4045 27.9948 53.4471 27.3161 54.1279 26.9768C56.1705 26.4678 56.0002 26.2982 56.6811 27.9948L57.1917 29.5218L58.0428 32.2364L58.5534 33.5938L59.0641 35.1208L59.9151 38.0051L60.596 39.8714L61.2768 42.2467L61.9577 44.113C61.9577 44.622 61.9577 44.9613 61.7875 45.3007C61.2768 45.4703 57.1917 46.658 56.8513 46.8277C56.1705 46.9973 55.6598 47.3367 54.979 47.5063C53.9577 47.8456 53.9577 47.3367 53.4471 46.8277C53.4471 46.3187 52.9364 44.4523 52.596 44.113C52.596 43.604 52.4258 42.4164 51.9151 42.077L51.5747 40.2107L51.4045 40.041C51.2343 39.7017 51.4045 39.8714 51.2343 39.7017C51.2343 39.1927 51.0641 38.6837 50.8939 38.1747L50.0428 35.7994C50.0428 35.4601 49.8726 35.2904 49.8726 34.9511L49.5322 34.2724C49.5322 33.7634 49.3619 33.4241 49.1917 33.0848C49.0215 32.5758 48.8513 32.2364 48.8513 31.8971C48.6811 31.7274 48.6811 31.3881 48.6811 31.2184C48.5109 30.8791 48.5109 31.0488 48.3407 30.7095ZM46.1279 29.5218L46.2981 30.7095L46.6385 32.0668C45.2768 32.5758 44.0853 32.7454 42.8939 31.8971C39.3194 29.8611 37.1066 29.8611 33.7024 31.0488C33.0215 31.3881 32.6811 31.7274 32.1705 31.3881C29.6173 30.5398 27.5747 29.3521 24.5109 30.0308C21.447 30.7095 20.9364 32.0668 19.4045 32.0668C18.7236 32.0668 18.0428 31.8971 17.5322 31.5578L17.7024 30.7095C17.8726 30.5398 17.8726 30.3701 18.0428 30.0308V29.3521C17.8726 29.0128 17.8726 29.1825 17.8726 29.0128C17.8726 28.5038 17.7024 28.1645 17.3619 27.8251C16.5109 26.8072 16.0002 26.8072 14.4683 26.2982C13.2768 25.9588 11.9151 25.4498 10.8939 25.2802V2.54502C13.7875 2.37535 42.8939 2.37535 43.4045 2.71468V4.41133V5.59899V7.97431V11.0283C43.4045 12.0463 43.7449 12.3856 44.7662 12.3856C45.7875 12.3856 46.6385 12.3856 47.6598 12.3856C49.5322 12.3856 51.4045 12.3856 53.2768 12.3856V25.2802C52.0854 25.4498 50.8939 25.9588 49.7024 26.2982C48.6811 26.6375 47.1492 26.9768 46.6385 27.8251C46.4683 28.1645 46.8088 27.8251 46.4683 28.1645C46.2981 28.3341 46.2981 28.5038 46.2981 28.6735C46.1279 29.0128 46.1279 29.1825 46.1279 29.5218ZM16.3407 35.1208L16.8513 33.5938C17.8726 33.7634 18.7236 34.1028 19.9151 34.1028C20.9364 33.9331 21.7875 33.5938 22.2981 32.9151C24.0002 32.7454 24.5109 30.8791 28.9364 32.4061C29.7875 32.7454 29.6173 32.5758 29.7875 32.9151C29.1066 33.0848 26.8939 34.6118 26.3832 35.1208C25.7024 35.4601 22.979 37.4961 22.8088 38.0051C22.2981 38.5141 21.2768 39.1927 21.1066 39.8714C20.7662 40.2107 21.1066 40.7197 21.2768 41.059C21.2768 41.2287 21.4471 41.3984 21.4471 41.568L21.7875 42.077C22.1279 42.9254 22.979 43.9433 23.83 44.4523C25.7024 45.3007 28.2556 44.113 30.6385 43.2647C31.4896 43.095 33.1917 42.586 33.8726 42.077C34.3832 42.077 35.0641 41.9074 35.7449 41.568C35.9151 41.568 36.4258 41.3984 36.596 41.3984C37.1066 41.2287 37.1066 41.3984 37.6173 41.3984C38.1279 41.7377 39.83 42.2467 40.5109 42.4164C41.1917 42.7557 42.5534 43.4343 43.2343 43.604L45.9577 45.131C46.1279 45.3007 46.1279 45.3007 46.2981 45.3007C46.6385 45.64 46.979 45.8097 47.4896 46.149C47.83 46.3187 48.3407 46.8277 48.6811 46.8277C49.3619 47.5063 50.0428 47.5063 50.3832 48.5243C50.8939 48.694 50.7236 50.0513 50.5534 50.5603C49.0215 52.7659 46.1279 50.0513 44.4258 49.3726L40.5109 47.3367C38.4683 46.3187 38.1279 49.3726 40.5109 49.5423C40.8513 49.8816 44.4258 51.7479 44.9364 51.9176C45.1066 52.2569 45.1066 52.0873 45.4471 52.5963C45.4471 52.7659 45.6173 52.9356 45.6173 53.1053C45.7875 53.6143 45.7875 53.7839 45.6173 54.1233C45.6173 54.2929 45.4471 54.4626 45.4471 54.6323C45.4471 54.8019 45.4471 54.6323 45.2768 54.9716C44.7662 55.3109 44.0853 55.8199 42.8939 55.4806C42.0428 55.1413 41.3619 54.6323 40.5109 54.2929C40.3407 53.9536 38.8088 53.2749 38.4683 53.1053C37.447 52.4266 36.9364 52.0873 35.9151 52.9356C35.9151 53.6143 36.0853 54.2929 36.7662 54.2929C36.7662 54.4626 36.7662 54.4626 36.9364 54.6323L37.7875 54.9716C38.1279 55.1413 38.2981 55.3109 38.6385 55.4806C40.3407 56.3289 39.3194 55.8199 40.5109 56.6682C41.1917 58.0256 40.8513 58.7042 40.0002 59.5526C38.4683 60.4009 36.9364 59.2132 35.7449 58.5346C34.7236 58.0256 31.6598 55.6502 31.4896 57.8559C31.4896 58.1952 31.6598 58.3649 31.83 58.3649C32.1705 59.0436 33.1917 59.5526 33.8726 59.7222C34.213 59.8919 34.5534 60.2312 34.8939 60.4009C35.5747 60.7402 35.5747 60.7402 35.9151 61.0795C36.4258 62.2672 36.0853 63.4548 34.7236 63.4548C34.0428 63.4548 32.5109 62.4369 31.83 62.0975L32.1705 61.0795C32.0002 59.8919 32.1705 59.3829 31.3194 58.5346C30.2981 57.1772 28.9364 57.1772 27.2343 57.8559C26.8939 57.3469 26.8939 57.1772 26.5534 56.6682C26.213 56.1592 25.1917 55.4806 24.1705 55.4806C22.6385 55.3109 22.1279 55.8199 21.1066 56.3289C20.7662 54.9716 19.5747 54.2929 17.8726 53.9536V53.7839C17.7024 53.2749 17.7024 53.1053 17.7024 52.7659C17.7024 52.5963 17.5322 52.2569 17.5322 52.2569C17.3619 51.9176 17.5322 52.0873 17.1917 51.9176C17.0215 51.0693 16.1705 50.3906 15.3194 50.221C14.8088 50.0513 14.2981 49.8816 13.7875 50.0513C12.7662 50.0513 13.2768 49.8816 12.596 49.5423C11.4045 48.0153 12.0853 48.694 12.596 46.8277L13.1066 45.3007L13.6173 43.604L14.1279 42.077L14.8088 40.041L15.4896 37.8354L16.0002 36.1387L16.3407 35.1208ZM11.0641 56.6682C10.8939 56.1592 10.8939 55.9896 11.0641 55.3109C11.4045 54.4626 11.9151 54.1233 12.2556 53.2749C12.7662 53.1053 12.2556 52.9356 13.6173 52.0873L13.7875 51.9176H14.4683C14.979 52.4266 15.3194 52.4266 15.6598 53.2749C15.83 54.6323 14.6385 55.8199 13.9577 56.6682C12.9364 58.0256 12.2556 57.5166 11.0641 56.6682ZM47.4896 34.2724L48.0002 35.7994L48.6811 37.8354L49.3619 40.041L50.0428 42.2467L50.7236 44.113L51.2343 46.3187C50.7236 45.9793 50.3832 45.4703 49.7024 45.3007C49.5322 44.9613 49.3619 44.9613 49.0215 44.7917C48.5109 44.4523 47.4896 43.604 46.979 43.4343C46.4683 43.095 43.5747 41.568 42.8939 41.2287C42.5534 40.8894 40.1705 40.041 39.4896 39.8714C37.6173 39.3624 37.447 38.8534 35.5747 39.532C33.0215 40.3804 30.4683 41.2287 27.9151 42.077C27.4045 42.2467 26.5534 42.586 26.0428 42.586C25.0215 42.9254 24.5109 42.4164 24.0002 42.077C24.0002 41.7377 23.83 41.568 23.4896 41.059C23.1492 40.55 23.3194 40.55 23.4896 40.041L24.0002 39.532C24.3407 39.3624 24.3407 39.1927 24.5109 39.0231C24.8513 38.8534 24.8513 38.8534 25.0215 38.5141L25.7024 38.0051C26.0428 37.8354 25.7024 38.0051 25.8726 37.8354C26.5534 37.4961 27.5747 36.4781 29.1066 35.6297C29.447 35.2904 29.447 35.4601 29.6173 35.1208L33.5322 33.2544C33.7024 33.2544 33.7024 33.2544 33.8726 33.2544C34.213 33.0848 33.5322 33.4241 34.0428 33.0848L34.213 32.9151C35.0641 33.0848 36.0853 32.2364 37.447 32.2364C38.8088 32.2364 39.6598 32.9151 40.6811 32.9151C41.0215 33.4241 42.7236 34.2724 43.4045 34.4421C44.596 34.6118 46.1279 34.4421 47.1492 33.9331L47.4896 34.2724ZM12.2556 29.6915C10.8939 30.3701 11.9151 32.0668 13.1066 31.5578C14.1279 31.0488 13.4471 29.1825 12.2556 29.6915ZM51.0641 29.5218C49.7024 30.0308 50.5534 31.8971 51.7449 31.3881C52.9364 31.0488 52.2556 29.0128 51.0641 29.5218ZM20.596 61.0795C20.9364 59.8919 21.6173 59.3829 22.1279 58.3649C22.6385 58.1952 22.6385 57.5166 23.6598 57.5166C24.6811 57.3469 24.8513 58.0256 25.3619 58.3649C25.5322 60.0615 25.0215 59.8919 24.5109 60.9099C23.83 61.5885 23.6598 62.7762 22.4683 62.9459C21.2768 63.1155 20.596 62.0975 20.596 61.0795ZM19.2343 58.5346L17.7024 60.9099C16.6811 61.9279 15.83 61.7582 14.979 60.9099C14.4683 60.0615 14.6385 59.3829 15.1492 58.7042L16.3407 56.8379L16.6811 56.4986C17.0215 56.3289 17.1917 56.1592 17.7024 56.1592C18.5534 55.9896 18.8939 56.4986 19.2343 56.8379C19.5747 57.1772 19.4045 58.1952 19.2343 58.5346ZM27.0641 61.0795C27.5747 60.4009 27.9151 59.5526 28.596 59.3829C29.6173 59.2132 30.4683 60.0615 29.9577 60.9099C29.7875 61.4189 29.447 61.9279 29.1066 62.4369C28.7662 62.7762 28.596 63.2852 28.0853 63.4548C27.2343 63.6245 26.7236 63.2852 26.5534 62.7762C26.3832 61.9279 26.8939 61.5885 27.0641 61.0795ZM17.1917 9.33163H38.8088C40.6811 9.33163 40.6811 7.29564 38.6385 7.29564H17.1917C15.3194 7.29564 15.3194 9.33163 17.1917 9.33163ZM16.5109 15.9486C15.6598 16.2879 15.1492 17.9846 17.5322 17.9846C22.2981 17.8149 46.979 17.9846 47.6598 17.8149C48.3407 17.6452 49.1917 15.7789 46.6385 15.9486C41.8726 15.9486 17.0215 15.7789 16.5109 15.9486ZM16.5109 24.6015C15.6598 24.9408 15.1492 26.6375 17.5322 26.6375C22.2981 26.6375 47.1492 26.6375 47.6598 26.4678C48.5109 26.1285 48.6811 24.6015 46.6385 24.6015C41.8726 24.6015 17.0215 24.4318 16.5109 24.6015Z" fill="#FFB629"/>
</svg>
