<svg width="37" height="50" viewBox="0 0 37 50" fill="none" xmlns="http://www.w3.org/2000/svg">
<path fill-rule="evenodd" clip-rule="evenodd" d="M8.79836 4.54545C9.20259 3.44353 10.2806 2.75482 11.3585 2.75482H12.4365C12.9754 1.10193 14.4576 0 16.0746 0C17.8263 0 19.3085 1.10193 19.8474 2.75482H20.9254C22.0034 2.75482 23.0813 3.44353 23.4855 4.54545H28.6058C30.627 4.54545 32.244 6.19835 32.244 8.26446V32.3691C35.0736 34.022 36.96 37.0523 36.96 40.6336C36.96 45.73 32.9177 50 27.9321 50C24.1593 50 21.0601 47.7961 19.5779 44.6281H3.67806C1.65689 44.6281 0.0399475 42.8375 0.0399475 40.7714V8.26446C0.0399475 6.19835 1.65689 4.54545 3.67806 4.54545H8.79836ZM27.9321 32.5069C32.244 32.5069 35.7473 36.2259 35.7473 40.6336C35.7473 45.0413 32.244 48.6226 27.9321 48.6226C23.4855 48.6226 19.9822 45.0413 19.9822 40.6336C19.9822 36.2259 23.4855 32.5069 27.9321 32.5069ZM27.9321 31.2672C29.0101 31.2672 29.9533 31.405 31.0313 31.8182V8.26446C31.0313 6.88705 29.9533 5.78512 28.6058 5.78512H22.4076C22.4076 5.78512 22.4076 5.64738 22.4076 5.50964C22.4076 4.6832 21.7339 3.99449 20.9254 3.99449H18.7695C18.7695 2.47934 17.5568 1.23967 16.0746 1.23967C14.7271 1.23967 13.5144 2.47934 13.5144 3.99449H11.3585C10.55 3.99449 9.87632 4.6832 9.87632 5.50964C9.87632 5.64738 9.87632 5.78512 9.87632 5.78512H3.67806C2.33061 5.78512 1.25265 6.88705 1.25265 8.26446V40.7714C1.25265 42.1488 2.33061 43.2507 3.67806 43.2507H19.1737C18.9042 42.4242 18.7695 41.5978 18.7695 40.6336C18.7695 35.3994 22.8118 31.2672 27.9321 31.2672Z" fill="#1D4F78"/>
<path fill-rule="evenodd" clip-rule="evenodd" d="M24.6982 21.0739C24.4288 21.0739 23.3508 20.9362 23.0813 21.0739C22.5423 21.7626 22.8118 22.5891 23.755 22.5891C23.8898 22.5891 24.5635 22.5891 24.6982 22.4513C25.1025 22.1758 25.1025 22.1758 25.1025 21.7626C25.1025 21.4871 24.9677 21.2117 24.833 21.0739H24.6982Z" fill="#1D4F78"/>
<path fill-rule="evenodd" clip-rule="evenodd" d="M7.85516 24.2422C7.18144 24.38 7.18144 24.6555 7.04669 25.3442C7.72042 25.8951 7.45093 25.7574 8.39414 25.7574C8.93312 25.7574 9.4721 25.7574 9.4721 24.9309C9.4721 24.2422 8.66363 24.1045 7.98991 24.1045L7.85516 24.2422Z" fill="#1D4F78"/>
<path fill-rule="evenodd" clip-rule="evenodd" d="M8.25939 17.7686L7.58567 17.9063C6.7772 18.4573 7.04669 19.4214 8.25939 19.4214C8.66363 19.4214 10.2806 19.4214 10.5501 19.2837C11.089 19.0082 11.089 18.7327 10.9543 18.1818V18.044C10.9543 18.044 10.4153 17.9063 10.2806 17.9063C9.74158 17.7686 8.79837 17.7686 8.25939 17.7686Z" fill="#1D4F78"/>
<path fill-rule="evenodd" clip-rule="evenodd" d="M21.4644 12.6719C21.8686 13.0851 22.5423 12.9473 23.0813 12.9473C23.3508 12.9473 24.5635 13.0851 24.6983 12.9473C24.833 12.8096 25.2372 12.3964 25.1025 12.2586C24.9677 11.2945 24.5635 11.4322 23.6203 11.4322C23.2161 11.4322 21.7339 11.2945 21.4644 11.7077C21.0601 12.1209 21.1949 12.2586 21.4644 12.6719Z" fill="#1D4F78"/>
<path fill-rule="evenodd" clip-rule="evenodd" d="M24.9677 18.1818C24.6982 17.7686 24.1593 17.7686 23.6203 17.7686C22.8118 17.7686 22.1381 17.7686 21.3296 17.9063C21.1949 17.9063 20.7906 17.9063 20.7906 17.9063C20.5211 18.1818 20.5211 18.044 20.5211 18.4573C20.3864 18.7327 20.5211 19.0082 20.6559 19.146C21.1949 19.5592 22.2728 19.4214 22.9466 19.4214C23.3508 19.4214 24.5635 19.4214 24.833 19.146C24.9677 19.146 25.1025 18.7327 25.1025 18.595C25.1025 18.4573 25.1025 18.3195 24.9677 18.1818Z" fill="#1D4F78"/>
<path fill-rule="evenodd" clip-rule="evenodd" d="M11.089 25.3442C11.4932 26.0329 12.4365 25.7574 13.1102 25.7574C13.2449 25.7574 15.2661 25.8951 15.2661 25.7574C15.4008 25.7574 15.6703 25.3442 15.6703 25.2064C15.8051 24.6555 15.4008 24.2422 14.8619 24.2422C14.5924 24.1045 13.6492 24.1045 13.2449 24.1045C12.9754 24.1045 11.7627 24.1045 11.4932 24.2422C11.089 24.6555 10.9543 24.7932 11.089 25.3442Z" fill="#1D4F78"/>
<path fill-rule="evenodd" clip-rule="evenodd" d="M19.5779 20.9365C19.1737 20.9365 17.1525 20.9365 16.883 21.0742C16.7483 21.212 16.7483 21.212 16.6136 21.3497C16.6136 23.0026 17.0178 22.5894 18.3652 22.5894C18.9042 22.5894 20.5212 22.7271 20.7906 22.4516C21.1949 22.3139 21.1949 22.1762 21.1949 21.7629C21.0601 20.7987 20.2517 20.9365 19.5779 20.9365Z" fill="#1D4F78"/>
<path fill-rule="evenodd" clip-rule="evenodd" d="M18.7695 18.1818C18.2305 17.7686 17.961 17.7686 17.2873 17.7686C16.7483 17.7686 13.3797 17.7686 13.1102 17.9063C12.9754 17.9063 12.8407 18.044 12.706 18.044C12.5712 19.5592 12.9754 19.4214 14.3229 19.4214C15.5356 19.4214 16.6136 19.4214 17.6915 19.4214C18.5 19.4214 18.9042 19.146 18.7695 18.3195V18.1818Z" fill="#1D4F78"/>
<path fill-rule="evenodd" clip-rule="evenodd" d="M14.0534 15.1511C13.9187 14.4624 13.245 14.6001 12.706 14.6001C12.167 14.6001 7.85516 14.6001 7.58567 14.6001C7.58567 14.7379 7.31618 15.0133 7.04669 15.0133C7.31618 16.253 7.31618 16.253 8.66363 16.253C10.2806 16.253 12.0323 16.1153 13.7839 16.1153C14.0534 15.702 14.1882 15.5643 14.0534 15.1511Z" fill="#1D4F78"/>
<path fill-rule="evenodd" clip-rule="evenodd" d="M18.2305 25.758C19.3085 25.8958 20.5212 25.758 21.7339 25.758C22.1381 25.758 24.4288 25.8958 24.6983 25.758C25.1025 25.4825 25.2372 24.9316 24.9677 24.5183C24.6983 24.1051 24.833 24.2429 24.294 24.2429C22.2729 24.2429 20.2517 24.1051 18.3653 24.2429C17.8263 24.2429 17.422 24.2429 17.2873 24.9316C17.2873 25.4825 17.6915 25.758 18.2305 25.758Z" fill="#1D4F78"/>
<path fill-rule="evenodd" clip-rule="evenodd" d="M14.8619 21.3497C14.5924 20.9365 13.6492 20.9365 13.1102 20.9365C11.7627 20.9365 10.4153 20.9365 9.20258 20.9365C8.79835 20.9365 7.98988 20.9365 7.72039 21.0743C7.04667 21.3497 6.91192 21.763 7.31616 22.3139C7.58565 22.5894 7.58565 22.4517 7.58565 22.5894C7.58565 22.7272 7.98988 22.5894 8.12463 22.5894C10.0111 22.4517 12.0322 22.7272 13.9187 22.5894C14.4576 22.5894 14.9966 22.4517 14.8619 21.763C14.8619 21.6252 14.8619 21.4875 14.8619 21.3497Z" fill="#1D4F78"/>
<path fill-rule="evenodd" clip-rule="evenodd" d="M24.6982 16.1154C24.833 15.9776 24.9677 15.7022 25.2372 15.5644C24.9677 14.4625 24.6982 14.6002 23.755 14.6002C21.4644 14.6002 19.1737 14.6002 16.883 14.6002C16.2093 14.6002 15.8051 14.6002 15.8051 15.4267C15.8051 16.2531 16.4788 16.2531 17.1525 16.2531C19.1737 16.1154 21.1949 16.2531 23.216 16.2531C23.755 16.2531 24.1593 16.2531 24.6982 16.1154Z" fill="#1D4F78"/>
<path fill-rule="evenodd" clip-rule="evenodd" d="M7.85516 12.9473C8.79837 13.085 10.1458 12.9473 11.2238 13.085C12.3017 13.085 18.9042 13.2228 19.3085 12.8096C19.7127 12.5341 19.7127 12.2586 19.578 11.8454C19.1737 11.1567 17.6915 11.4322 17.0178 11.4322C15.6704 11.4322 7.72041 11.1567 7.31618 11.7076C6.91195 11.9831 7.18143 12.8096 7.85516 12.9473Z" fill="#1D4F78"/>
<path fill-rule="evenodd" clip-rule="evenodd" d="M26.8542 42.9756C26.5847 42.9756 25.9109 41.736 25.6415 41.4605C25.372 41.3228 25.5067 41.185 24.9677 40.7718C24.6982 40.6341 24.1593 40.6341 24.0245 40.9095C23.755 41.3228 23.8898 41.736 24.0245 42.1492C24.1593 42.1492 24.294 42.2869 24.4288 42.5624C24.833 43.1134 25.2372 43.6644 25.6415 44.2153C26.0457 44.7663 26.7194 45.8682 27.3931 45.1795C27.7974 44.904 28.4711 43.5266 28.8753 43.1134C29.1448 42.5624 29.4143 42.1492 29.6838 41.736C30.2228 40.9095 30.627 40.2208 31.166 39.3944C31.4355 38.9812 31.705 38.7057 31.8397 38.4302C32.2439 37.8792 32.3787 38.017 32.3787 37.3283C32.2439 36.3641 31.3007 36.3641 30.7618 37.1905C30.4923 37.6037 30.088 38.1547 29.6838 38.7057C29.2796 39.3944 27.2584 42.7002 26.8542 42.9756Z" fill="#1D4F78"/>
</svg>
