<svg width="19" height="13" viewBox="0 0 19 13" fill="none" xmlns="http://www.w3.org/2000/svg">
<path fill-rule="evenodd" clip-rule="evenodd" d="M17.735 1.5675C17.2467 0.699 16.7169 0.53925 15.638 0.4785C14.5603 0.405375 11.8501 0.375 9.50225 0.375C7.14987 0.375 4.43862 0.405375 3.362 0.477375C2.28537 0.53925 1.75437 0.697875 1.26162 1.5675C0.75875 2.43488 0.5 3.92887 0.5 6.55912V6.56813C0.5 9.18713 0.75875 10.6924 1.26162 11.5507C1.75437 12.4193 2.28425 12.5768 3.36087 12.6499C4.43863 12.7129 7.14987 12.75 9.50225 12.75C11.8501 12.75 14.5602 12.7129 15.6391 12.651C16.718 12.5779 17.2479 12.4204 17.7361 11.5519C18.2435 10.6935 18.5 9.18825 18.5 6.56925V6.56025C18.5 3.92888 18.2435 2.43488 17.735 1.5675Z" fill="#E91313"/>
<path fill-rule="evenodd" clip-rule="evenodd" d="M7.25 9.9375V3.1875L12.875 6.5625L7.25 9.9375Z" fill="#FDF9F9"/>
</svg>
